<svg width="64" height="64" viewBox="0 0 64 64" fill="none" xmlns="http://www.w3.org/2000/svg">
<path d="M14.8027 38.3981C23.2912 33.4229 34.0432 33.4229 42.5318 38.3981C42.8006 38.5557 43.1352 38.7416 43.5163 38.9531C45.2032 39.8896 47.795 41.3283 49.5694 43.0379C50.6774 44.1056 51.7694 45.5475 51.9688 47.3432C52.1824 49.2672 51.323 51.0429 49.6795 52.5843C46.8792 55.2104 43.4982 57.3333 39.1184 57.3333H18.2159C13.8364 57.3333 10.4552 55.2101 7.65503 52.5843C6.01151 51.0429 5.15191 49.2672 5.36556 47.3432C5.56495 45.5475 6.65711 44.1056 7.76508 43.0379C9.53946 41.3283 12.1312 39.8896 13.8183 38.9531C14.1991 38.7416 14.5339 38.5557 14.8027 38.3981Z" fill="#FAFAFA"/>
<path d="M16.0005 18C16.0005 11.0044 21.6716 5.33331 28.6672 5.33331C35.6626 5.33331 41.3338 11.0044 41.3338 18C41.3338 24.9956 35.6626 30.6666 28.6672 30.6666C21.6716 30.6666 16.0005 24.9956 16.0005 18Z" fill="#FAFAFA"/>
<path fill-rule="evenodd" clip-rule="evenodd" d="M51.3333 12.6666C50.6602 12.6666 50 13.2455 50 14.1025C50 15.5753 48.8061 16.7692 47.3333 16.7692C45.8605 16.7692 44.6666 15.5753 44.6666 14.1025C44.6666 10.4281 47.5882 7.33331 51.3333 7.33331C55.0784 7.33331 58 10.4281 58 14.1025C58 15.4316 57.62 16.6822 56.9584 17.7367C56.5784 18.3427 56.1413 18.9097 55.7674 19.3864C55.6954 19.4779 55.6261 19.5659 55.5589 19.6513C55.2506 20.0427 54.9877 20.3767 54.7432 20.7214C54.1322 21.5826 54 22.0319 54 22.3077V23.3333C54 24.8061 52.8061 26 51.3333 26C49.8605 26 48.6666 24.8061 48.6666 23.3333V22.3077C48.6666 20.3177 49.62 18.7256 50.3933 17.6355C50.7229 17.1708 51.0856 16.7107 51.3957 16.3174C51.4565 16.2404 51.5152 16.1659 51.5712 16.0944C51.9405 15.6237 52.2232 15.2491 52.4405 14.9023C52.5813 14.6783 52.6666 14.4069 52.6666 14.1025C52.6666 13.2455 52.0064 12.6666 51.3333 12.6666Z" fill="#FAFAFA"/>
<path fill-rule="evenodd" clip-rule="evenodd" d="M48.6666 30C48.6666 28.5272 49.8605 27.3333 51.3333 27.3333H51.3573C52.8301 27.3333 54.024 28.5272 54.024 30C54.024 31.4728 52.8301 32.6666 51.3573 32.6666H51.3333C49.8605 32.6666 48.6666 31.4728 48.6666 30Z" fill="#FAFAFA"/>
</svg>
