<svg width="1029" height="158" viewBox="0 0 1029 158" fill="none" xmlns="http://www.w3.org/2000/svg">
<mask id="path-1-outside-1_1227_3313" maskUnits="userSpaceOnUse" x="0.191406" y="0.831543" width="1029" height="193" fill="black">
<rect fill="white" x="0.191406" y="0.831543" width="1029" height="193"/>
<path d="M1.19141 189V3.70323H120.177V32.3133H34.8817V78.0358H110.819V106.111H34.8817V160.39H126.594V189H1.19141ZM186.081 189C177.168 170.64 167.988 149.605 158.54 125.897C149.271 102.011 140.804 76.4315 133.139 49.1584H167.631C169.592 57.0017 171.82 65.4688 174.316 74.5598C176.99 83.4726 179.753 92.4745 182.605 101.566C185.635 110.478 188.665 119.213 191.696 127.769C194.904 136.147 197.846 143.723 200.519 150.497C203.193 143.723 206.045 136.147 209.076 127.769C212.106 119.213 215.047 110.478 217.899 101.566C220.93 92.4745 223.782 83.4726 226.456 74.5598C229.129 65.4688 231.447 57.0017 233.408 49.1584H266.831C259.166 76.4315 250.609 102.011 241.162 125.897C231.892 149.605 222.801 170.64 213.889 189H186.081ZM280.106 119.748C280.106 107.448 281.888 96.6635 285.453 87.3942C289.197 78.1249 294.099 70.46 300.159 64.3993C306.22 58.1603 313.172 53.5257 321.015 50.4953C328.859 47.2867 336.88 45.6824 345.08 45.6824C364.331 45.6824 379.305 51.654 390 63.5971C400.874 75.5402 406.311 93.3658 406.311 117.074C406.311 118.856 406.222 120.906 406.043 123.224C406.043 125.363 405.954 127.323 405.776 129.106H313.529C314.42 140.336 318.342 149.071 325.293 155.31C332.424 161.37 342.673 164.401 356.043 164.401C363.886 164.401 371.016 163.688 377.433 162.262C384.029 160.836 389.198 159.32 392.941 157.716L397.22 184.187C395.437 185.078 392.941 186.059 389.733 187.128C386.703 188.02 383.137 188.822 379.038 189.535C375.116 190.426 370.838 191.139 366.203 191.674C361.569 192.209 356.845 192.476 352.032 192.476C339.732 192.476 329.037 190.693 319.946 187.128C310.855 183.385 303.368 178.305 297.486 171.887C291.603 165.292 287.236 157.627 284.384 148.892C281.532 139.98 280.106 130.265 280.106 119.748ZM373.957 105.309C373.957 100.853 373.333 96.6635 372.086 92.7419C370.838 88.642 368.966 85.166 366.471 82.3139C364.153 79.2836 361.212 76.9663 357.647 75.362C354.26 73.5794 350.16 72.6881 345.347 72.6881C340.356 72.6881 335.989 73.6685 332.245 75.6294C328.502 77.4119 325.293 79.8184 322.62 82.8487C320.124 85.8791 318.163 89.355 316.737 93.2767C315.311 97.1983 314.331 101.209 313.796 105.309H373.957ZM520.293 78.3032C517.619 77.4119 513.876 76.5206 509.063 75.6294C504.429 74.5598 498.992 74.0251 492.753 74.0251C489.188 74.0251 485.355 74.3816 481.255 75.0946C477.334 75.8076 474.571 76.4315 472.966 76.9663V189H440.613V55.843C446.852 53.5257 454.606 51.3866 463.875 49.4258C473.323 47.2867 483.751 46.2172 495.159 46.2172C497.298 46.2172 499.794 46.3954 502.646 46.752C505.498 46.9302 508.35 47.2867 511.202 47.8215C514.054 48.178 516.817 48.7128 519.491 49.4258C522.165 49.9606 524.304 50.4953 525.908 51.0301L520.293 78.3032ZM602.466 1.83154C629.382 1.83154 649.971 6.73357 664.231 16.5376C678.67 26.3417 685.889 41.6717 685.889 62.5276C685.889 73.4012 683.928 82.7596 680.007 90.6028C676.263 98.2678 670.737 104.596 663.429 109.587C656.121 114.4 647.208 117.965 636.691 120.282C626.174 122.6 614.141 123.758 600.594 123.758H583.749V189H550.058V6.37707C557.902 4.59451 566.547 3.43585 575.995 2.90108C585.62 2.18805 594.444 1.83154 602.466 1.83154ZM604.872 30.9763C596.316 30.9763 589.275 31.2437 583.749 31.7785V94.881H600.059C616.28 94.881 628.758 92.6528 637.493 88.1964C646.227 83.5617 650.595 74.9163 650.595 62.2602C650.595 56.1995 649.436 51.1192 647.119 47.0193C644.801 42.9195 641.593 39.7109 637.493 37.3935C633.393 35.0762 628.491 33.4719 622.787 32.5806C617.261 31.5111 611.289 30.9763 604.872 30.9763ZM750.341 161.192C752.302 161.37 754.887 161.549 758.095 161.727C761.304 161.727 765.671 161.727 771.197 161.727C793.836 161.727 810.681 156.023 821.733 144.614C832.963 133.028 838.578 116.896 838.578 96.2179C838.578 75.1837 833.141 59.0516 822.267 47.8215C811.394 36.5914 794.549 30.9763 771.732 30.9763C761.75 30.9763 754.619 31.2437 750.341 31.7785V161.192ZM873.872 96.2179C873.872 112.261 871.377 126.254 866.386 138.197C861.394 149.962 854.264 159.855 844.995 167.877C835.904 175.72 824.852 181.602 811.839 185.524C799.005 189.267 784.745 191.139 769.058 191.139C761.571 191.139 753.104 190.782 743.657 190.069C734.209 189.535 725.207 188.287 716.651 186.326V6.37707C725.207 4.41626 734.298 3.16847 743.924 2.6337C753.55 2.09893 762.106 1.83154 769.593 1.83154C785.101 1.83154 799.272 3.70323 812.107 7.4466C824.941 11.0117 835.904 16.7159 844.995 24.5591C854.264 32.2241 861.394 42.0282 866.386 53.9713C871.377 65.7362 873.872 79.8184 873.872 96.2179ZM910.661 189V3.70323H1027.77V32.3133H944.351V79.6401H1018.42V108.25H944.351V189H910.661Z"/>
</mask>
<path d="M1.19141 189V3.70323H120.177V32.3133H34.8817V78.0358H110.819V106.111H34.8817V160.39H126.594V189H1.19141ZM186.081 189C177.168 170.64 167.988 149.605 158.54 125.897C149.271 102.011 140.804 76.4315 133.139 49.1584H167.631C169.592 57.0017 171.82 65.4688 174.316 74.5598C176.99 83.4726 179.753 92.4745 182.605 101.566C185.635 110.478 188.665 119.213 191.696 127.769C194.904 136.147 197.846 143.723 200.519 150.497C203.193 143.723 206.045 136.147 209.076 127.769C212.106 119.213 215.047 110.478 217.899 101.566C220.93 92.4745 223.782 83.4726 226.456 74.5598C229.129 65.4688 231.447 57.0017 233.408 49.1584H266.831C259.166 76.4315 250.609 102.011 241.162 125.897C231.892 149.605 222.801 170.64 213.889 189H186.081ZM280.106 119.748C280.106 107.448 281.888 96.6635 285.453 87.3942C289.197 78.1249 294.099 70.46 300.159 64.3993C306.22 58.1603 313.172 53.5257 321.015 50.4953C328.859 47.2867 336.88 45.6824 345.08 45.6824C364.331 45.6824 379.305 51.654 390 63.5971C400.874 75.5402 406.311 93.3658 406.311 117.074C406.311 118.856 406.222 120.906 406.043 123.224C406.043 125.363 405.954 127.323 405.776 129.106H313.529C314.42 140.336 318.342 149.071 325.293 155.31C332.424 161.37 342.673 164.401 356.043 164.401C363.886 164.401 371.016 163.688 377.433 162.262C384.029 160.836 389.198 159.32 392.941 157.716L397.22 184.187C395.437 185.078 392.941 186.059 389.733 187.128C386.703 188.02 383.137 188.822 379.038 189.535C375.116 190.426 370.838 191.139 366.203 191.674C361.569 192.209 356.845 192.476 352.032 192.476C339.732 192.476 329.037 190.693 319.946 187.128C310.855 183.385 303.368 178.305 297.486 171.887C291.603 165.292 287.236 157.627 284.384 148.892C281.532 139.98 280.106 130.265 280.106 119.748ZM373.957 105.309C373.957 100.853 373.333 96.6635 372.086 92.7419C370.838 88.642 368.966 85.166 366.471 82.3139C364.153 79.2836 361.212 76.9663 357.647 75.362C354.26 73.5794 350.16 72.6881 345.347 72.6881C340.356 72.6881 335.989 73.6685 332.245 75.6294C328.502 77.4119 325.293 79.8184 322.62 82.8487C320.124 85.8791 318.163 89.355 316.737 93.2767C315.311 97.1983 314.331 101.209 313.796 105.309H373.957ZM520.293 78.3032C517.619 77.4119 513.876 76.5206 509.063 75.6294C504.429 74.5598 498.992 74.0251 492.753 74.0251C489.188 74.0251 485.355 74.3816 481.255 75.0946C477.334 75.8076 474.571 76.4315 472.966 76.9663V189H440.613V55.843C446.852 53.5257 454.606 51.3866 463.875 49.4258C473.323 47.2867 483.751 46.2172 495.159 46.2172C497.298 46.2172 499.794 46.3954 502.646 46.752C505.498 46.9302 508.35 47.2867 511.202 47.8215C514.054 48.178 516.817 48.7128 519.491 49.4258C522.165 49.9606 524.304 50.4953 525.908 51.0301L520.293 78.3032ZM602.466 1.83154C629.382 1.83154 649.971 6.73357 664.231 16.5376C678.67 26.3417 685.889 41.6717 685.889 62.5276C685.889 73.4012 683.928 82.7596 680.007 90.6028C676.263 98.2678 670.737 104.596 663.429 109.587C656.121 114.4 647.208 117.965 636.691 120.282C626.174 122.6 614.141 123.758 600.594 123.758H583.749V189H550.058V6.37707C557.902 4.59451 566.547 3.43585 575.995 2.90108C585.62 2.18805 594.444 1.83154 602.466 1.83154ZM604.872 30.9763C596.316 30.9763 589.275 31.2437 583.749 31.7785V94.881H600.059C616.28 94.881 628.758 92.6528 637.493 88.1964C646.227 83.5617 650.595 74.9163 650.595 62.2602C650.595 56.1995 649.436 51.1192 647.119 47.0193C644.801 42.9195 641.593 39.7109 637.493 37.3935C633.393 35.0762 628.491 33.4719 622.787 32.5806C617.261 31.5111 611.289 30.9763 604.872 30.9763ZM750.341 161.192C752.302 161.37 754.887 161.549 758.095 161.727C761.304 161.727 765.671 161.727 771.197 161.727C793.836 161.727 810.681 156.023 821.733 144.614C832.963 133.028 838.578 116.896 838.578 96.2179C838.578 75.1837 833.141 59.0516 822.267 47.8215C811.394 36.5914 794.549 30.9763 771.732 30.9763C761.75 30.9763 754.619 31.2437 750.341 31.7785V161.192ZM873.872 96.2179C873.872 112.261 871.377 126.254 866.386 138.197C861.394 149.962 854.264 159.855 844.995 167.877C835.904 175.72 824.852 181.602 811.839 185.524C799.005 189.267 784.745 191.139 769.058 191.139C761.571 191.139 753.104 190.782 743.657 190.069C734.209 189.535 725.207 188.287 716.651 186.326V6.37707C725.207 4.41626 734.298 3.16847 743.924 2.6337C753.55 2.09893 762.106 1.83154 769.593 1.83154C785.101 1.83154 799.272 3.70323 812.107 7.4466C824.941 11.0117 835.904 16.7159 844.995 24.5591C854.264 32.2241 861.394 42.0282 866.386 53.9713C871.377 65.7362 873.872 79.8184 873.872 96.2179ZM910.661 189V3.70323H1027.77V32.3133H944.351V79.6401H1018.42V108.25H944.351V189H910.661Z" stroke="white" stroke-width="2" mask="url(#path-1-outside-1_1227_3313)"/>
</svg>
