<svg width="1000" height="804" viewBox="0 0 1000 804" fill="none" xmlns="http://www.w3.org/2000/svg">
<g opacity="0.6">
<line x1="0.000183105" y1="1.49116" x2="1000" y2="1.49116" stroke="white" stroke-width="1.01767"/>
<line x1="-6.10352e-05" y1="95.8911" x2="1000" y2="95.8911" stroke="white" stroke-width="1.01767"/>
<line x1="-6.10352e-05" y1="190.291" x2="1000" y2="190.291" stroke="white" stroke-width="1.01767"/>
<line x1="-6.10352e-05" y1="284.691" x2="1000" y2="284.691" stroke="white" stroke-width="1.01767"/>
<line x1="-6.10352e-05" y1="379.091" x2="1000" y2="379.091" stroke="white" stroke-width="1.01767"/>
<line x1="-6.10352e-05" y1="473.491" x2="1000" y2="473.491" stroke="white" stroke-width="1.01767"/>
<line x1="74.9209" y1="2056.07" x2="74.9209" y2="2" stroke="white" stroke-width="1.01767"/>
<line x1="169.321" y1="2056.07" x2="169.321" y2="2" stroke="white" stroke-width="1.01767"/>
<line x1="263.721" y1="2056.07" x2="263.721" y2="2" stroke="white" stroke-width="1.01767"/>
<line x1="358.121" y1="2056.07" x2="358.121" y2="2" stroke="white" stroke-width="1.01767"/>
<line x1="452.521" y1="2056.07" x2="452.521" y2="2" stroke="white" stroke-width="1.01767"/>
<line x1="546.921" y1="2056.07" x2="546.921" y2="2" stroke="white" stroke-width="1.01767"/>
<line x1="641.321" y1="2056.07" x2="641.321" y2="2" stroke="white" stroke-width="1.01767"/>
<line x1="735.721" y1="2056.07" x2="735.721" y2="2" stroke="white" stroke-width="1.01767"/>
<line x1="830.121" y1="2056.07" x2="830.121" y2="2" stroke="white" stroke-width="1.01767"/>
<line x1="924.521" y1="2056.07" x2="924.521" y2="2" stroke="white" stroke-width="1.01767"/>
</g>
</svg>
