<svg width="23" height="22" viewBox="0 0 23 22" fill="none" xmlns="http://www.w3.org/2000/svg">
<path fill-rule="evenodd" clip-rule="evenodd" d="M11.5 0.25C10.9388 0.25 10.4816 0.48611 10.0656 0.80358C9.6759 1.10089 9.24606 1.53075 8.74319 2.03367L8.70782 2.06904C8.19316 2.5837 7.74449 2.78626 7.05208 2.78626C6.9653 2.78626 6.85579 2.78318 6.73212 2.7797C6.41509 2.77078 6.00497 2.75924 5.64615 2.79027C5.12128 2.83566 4.46532 2.97929 3.96745 3.48134C3.4734 3.97955 3.33327 4.63282 3.28923 5.15439C3.25922 5.50995 3.27075 5.91701 3.27966 6.23178C3.28317 6.35578 3.28628 6.46549 3.28628 6.55206C3.28628 7.24448 3.08371 7.69315 2.56902 8.20784L2.53367 8.24319C2.03075 8.74606 1.60089 9.1759 1.30358 9.5655C0.98612 9.9816 0.75001 10.4388 0.75 11C0.75001 11.5611 0.98613 12.0183 1.30358 12.4344C1.60095 12.8242 2.03091 13.2541 2.53395 13.7571L2.56906 13.7922C2.90272 14.1258 3.06011 14.3422 3.14932 14.5464C3.23619 14.7453 3.28628 14.9971 3.28628 15.4479C3.28628 15.5347 3.2832 15.6442 3.27972 15.7679C3.2708 16.0849 3.25926 16.495 3.29029 16.8539C3.33569 17.3787 3.47933 18.0347 3.98139 18.5326C4.47961 19.0266 5.13287 19.1667 5.65443 19.2107C6.00997 19.2408 6.41703 19.2292 6.73179 19.2203C6.85581 19.2168 6.9655 19.2137 7.05206 19.2137C7.49328 19.2137 7.74126 19.2581 7.93645 19.3386C8.13147 19.4191 8.34006 19.5632 8.65424 19.8774C8.72129 19.9444 8.80963 20.0391 8.91153 20.1483C9.14149 20.3948 9.44071 20.7155 9.72 20.9596C10.1437 21.33 10.7516 21.75 11.5 21.75C12.2485 21.75 12.8563 21.33 13.2801 20.9596C13.5593 20.7155 13.8583 20.3951 14.0882 20.1486C14.1902 20.0392 14.2787 19.9445 14.3458 19.8773C14.6599 19.5632 14.8685 19.4191 15.0635 19.3386C15.2587 19.2581 15.5067 19.2137 15.9479 19.2137C16.0345 19.2137 16.1442 19.2168 16.2682 19.2203C16.583 19.2292 16.99 19.2408 17.3456 19.2107C17.8671 19.1667 18.5204 19.0266 19.0186 18.5326C19.5207 18.0347 19.6643 17.3787 19.7097 16.8539C19.7407 16.495 19.7292 16.0849 19.7203 15.7679C19.7168 15.6443 19.7137 15.5346 19.7137 15.4479C19.7137 14.9971 19.7638 14.7453 19.8507 14.5464C19.9399 14.3422 20.0973 14.1258 20.4309 13.7922L20.4661 13.7571C20.9691 13.2541 21.3991 12.8242 21.6964 12.4344C22.0139 12.0183 22.25 11.5611 22.25 11C22.25 10.4388 22.0139 9.9816 21.6964 9.5655C21.3991 9.1759 20.9693 8.74607 20.4664 8.24322L20.431 8.20784C20.0973 7.87416 19.9399 7.65779 19.8507 7.45354C19.7638 7.25468 19.7137 7.00288 19.7137 6.55206C19.7137 6.46534 19.7168 6.35593 19.7203 6.23236C19.7292 5.91533 19.7407 5.50496 19.7097 5.14615C19.6643 4.62129 19.5207 3.96533 19.0187 3.46747C18.5205 2.97339 17.8672 2.83325 17.3456 2.78921C16.99 2.75919 16.583 2.77072 16.2682 2.77964C16.1442 2.78315 16.0345 2.78626 15.9479 2.78626C15.2553 2.78626 14.8067 2.58361 14.2922 2.06904L14.2568 2.03368C13.7539 1.53075 13.3241 1.10089 12.9344 0.80358C12.5184 0.48611 12.0612 0.25 11.5 0.25ZM15.2657 9.1432C15.6209 8.72033 15.5661 8.08954 15.1432 7.73432C14.7203 7.37909 14.0895 7.43394 13.7343 7.85683L10.1972 12.0676L9.16603 11.1469C8.75406 10.7791 8.1219 10.8149 7.75407 11.2269C7.38624 11.6388 7.42202 12.271 7.83399 12.6388L9.634 14.246C9.8357 14.4261 10.1018 14.5168 10.3716 14.4975C10.6413 14.4781 10.8918 14.3503 11.0657 14.1432L15.2657 9.1432Z" fill="#FAFAFA"/>
</svg>
