<svg width="147" height="105" viewBox="0 0 147 105" fill="none" xmlns="http://www.w3.org/2000/svg">
<path fill-rule="evenodd" clip-rule="evenodd" d="M99.3189 44.6141C117.481 53.5349 132.087 66.9805 140.715 82.6959C143.352 87.4389 146.172 96.2399 146.488 100.532C146.721 103.738 146.571 104.122 145.419 104.673C143.833 105.424 143.732 105.29 142.849 98.9612C140.231 80.909 120.485 58.8792 96.6806 47.5526C91.2552 44.9632 81.89 41.9055 80.6878 42.306C80.3372 42.4229 80.4874 43.0408 81.0381 44.0261C86.4288 53.1949 89.6816 66.9722 88.4612 75.3382C87.0403 85.1068 79.36 88.1111 70.997 82.2148C61.165 75.2494 54.3562 61.3211 55.8941 51.2352C56.9472 44.5391 62.3908 39.1631 69.0522 38.2793C71.9405 37.9292 71.9406 37.7622 69.5036 35.2903C64.1288 30.0123 56.7338 25.8529 46.6507 22.4777C31.9935 17.5653 19.0552 15.8094 10.5071 17.5444C7.21806 18.1951 5.94927 18.0612 5.56552 16.9089C4.91479 14.955 11.3761 12.9691 18.5049 12.9872C26.3348 12.9386 40.2578 15.9805 51.5595 20.1742C61.3587 23.8666 67.5517 27.7587 73.7443 34.3226L77.1494 37.8634L81.6902 38.6325C87.5667 39.5687 92.4079 41.2396 99.3189 44.6141ZM80.8472 81.2147C84.153 80.1132 85.6734 74.319 84.6398 66.5371C83.8063 60.0243 80.3859 49.5867 78.0493 46.2465C77.9904 46.1582 77.915 46.0461 77.8273 45.9156C77.4174 45.3059 76.7388 44.2966 76.2301 43.4574C75.0951 41.7205 74.7613 41.5534 72.3572 41.6866C69.1183 41.8195 64.6271 43.3716 63.2578 44.7741C60.5193 47.579 59.2163 51.5197 59.5326 56.3124C60.1981 68.0018 73.5844 83.6347 80.8472 81.2147ZM11.0925 5.10501C15.5341 1.23171 17.6212 -0.0203086 18.6228 0.480855C20.0084 1.13238 19.5237 3.68724 17.9209 4.22129C15.717 4.95562 3.77786 16.5591 4.12825 17.6112C4.19499 17.8116 7.3 19.1147 11.0728 20.418C20.6884 23.8933 26.6646 26.8 27.1485 28.253C27.8326 30.3071 25.5287 30.4068 20.9713 28.4187C18.6843 27.3997 14.8448 25.896 12.4409 25.0272C9.9869 24.175 6.44785 22.7382 4.5782 21.8027C-2.36626 18.495 -1.28055 15.7399 11.0925 5.10501Z" fill="#FFC71F"/>
</svg>
