<svg width="20" height="22" viewBox="0 0 20 22" fill="none" xmlns="http://www.w3.org/2000/svg">
<path fill-rule="evenodd" clip-rule="evenodd" d="M10.5564 0.25C12.3942 0.24998 13.8498 0.24997 14.989 0.40314C16.1614 0.56076 17.1104 0.89288 17.8588 1.64124C18.6071 2.38961 18.9392 3.33856 19.0969 4.51098C19.25 5.65018 19.25 7.10585 19.25 8.94359V16C19.25 16.4142 18.9142 16.75 18.5 16.75C17.5335 16.75 16.75 17.5335 16.75 18.5C16.75 19.4665 17.5335 20.25 18.5 20.25C18.9142 20.25 19.25 20.5858 19.25 21C19.25 21.4142 18.9142 21.75 18.5 21.75H4C2.20508 21.75 0.75 20.2949 0.75 18.5V8.94357C0.74998 7.10582 0.749971 5.65019 0.903141 4.51098C1.06076 3.33856 1.39288 2.38961 2.14124 1.64124C2.88961 0.89288 3.83856 0.56076 5.01098 0.40314C6.15019 0.24997 7.60582 0.24998 9.4436 0.25H10.5564ZM2.25 18.5C2.25 19.4665 3.0335 20.25 4 20.25H15.7609C15.4375 19.7449 15.25 19.1443 15.25 18.5C15.25 17.8557 15.4375 17.2551 15.7609 16.75H4C3.0335 16.75 2.25 17.5335 2.25 18.5ZM8.154 5.25C7.53997 5.25 6.94823 5.62604 6.74718 6.24834L5.28652 10.7694C5.15918 11.1636 5.37548 11.5863 5.76963 11.7137C6.16378 11.841 6.58654 11.6247 6.71388 11.2306L7.03068 10.25H9.2774L9.5942 11.2306C9.7216 11.6247 10.1443 11.841 10.5385 11.7137C10.9326 11.5863 11.1489 11.1636 11.0216 10.7694L9.5609 6.24834C9.3599 5.62604 8.7681 5.25 8.154 5.25ZM8.154 6.77291L8.7928 8.75H7.5153L8.154 6.77291ZM13.7502 6C13.7502 5.58579 13.4144 5.25 13.0002 5.25C12.586 5.25 12.2502 5.58579 12.2502 6V11C12.2502 11.4142 12.586 11.75 13.0002 11.75C13.4144 11.75 13.7502 11.4142 13.7502 11V6Z" fill="#FAFAFA"/>
</svg>
