<svg width="22" height="22" viewBox="0 0 22 22" fill="none" xmlns="http://www.w3.org/2000/svg">
<path fill-rule="evenodd" clip-rule="evenodd" d="M13.1405 0.7722C12.8204 0.74999 12.4486 0.74999 11.7895 0.75H10.2105C9.5514 0.74999 9.1796 0.74999 8.85949 0.7722C4.25571 1.09176 0.59176 4.75571 0.2722 9.3595C0.24999 9.6796 0.24999 10.1304 0.25 10.7895C0.24999 11.4486 0.24999 11.8204 0.2722 12.1405C0.38603 13.7804 0.92471 15.3022 1.77921 16.5954L0.32436 20.2207C0.21546 20.492 0.27419 20.8019 0.47482 21.0146C0.67546 21.2273 0.98141 21.304 1.25865 21.2112L5.43709 19.8113C6.48219 20.3226 7.63831 20.643 8.85949 20.7278C9.1796 20.75 9.5514 20.75 10.2105 20.75H11.7895C12.4486 20.75 12.8204 20.75 13.1405 20.7278C17.7443 20.4082 21.4082 16.7443 21.7278 12.1405C21.75 11.8204 21.75 11.4486 21.75 10.7895C21.75 10.1304 21.75 9.6796 21.7278 9.3595C21.4082 4.75571 17.7443 1.09176 13.1405 0.7722ZM9.8731 7.25H8.26796L5.53125 14.4339L6.93298 14.9679L7.70169 12.95H10.4394L11.2081 14.9679L12.6098 14.4339L9.8731 7.25ZM9.868 11.45H8.27312L9.0705 9.3568L9.868 11.45ZM15.2491 14.75V7.25H13.7491V14.75H15.2491Z" fill="#FAFAFA"/>
</svg>
