<svg width="1440" height="533" viewBox="0 0 1440 533" fill="none" xmlns="http://www.w3.org/2000/svg">
<path opacity="0.1" fill-rule="evenodd" clip-rule="evenodd" d="M157.931 532.194H158.931H318.064H319.064H478.198H479.198H638.331H639.331H798.466H799.466H958.599H959.599H1118.73H1119.73H1278.87H1279.87H1439L1440 532.194L1440 532.194V-63.1051H1439V123.077H1279.87V-63.1051H1278.87V123.077H1119.73V-63.1051H1118.73V123.077H959.599V-63.1051H958.599V123.077H799.466V-63.1051H798.466V123.077L639.331 123.077V-63.1051H638.331V123.077H479.198V-63.1051H478.198V123.077H319.064V-63.1051H318.064V123.077H158.931V-63.1051H157.931V123.077H1.30371e-07L0 124.077H157.931V259.116H1.30371e-07L0 260.116H157.931V395.155H1.30371e-07L0 396.155H157.931V531.194H1.30371e-07L0 532.194H157.931ZM158.931 124.077V259.116H318.064V124.077H158.931ZM319.064 124.077V259.116H478.198V124.077H319.064ZM479.198 124.077V259.116H638.331V124.077H479.198ZM639.331 124.077V259.116L798.466 259.116V124.077L639.331 124.077ZM799.466 124.077V259.116H958.599V124.077H799.466ZM959.599 124.077V259.116H1118.73V124.077H959.599ZM1119.73 124.077V259.116H1278.87V124.077H1119.73ZM1279.87 124.077V259.116H1439V124.077H1279.87ZM1279.87 260.116H1439V395.155H1279.87V260.116ZM1119.73 260.116H1278.87V395.155H1119.73V260.116ZM959.599 260.116H1118.73V395.155H959.599V260.116ZM799.466 260.116H958.599V395.155H799.466V260.116ZM639.331 260.116L798.466 260.116V395.155L639.331 395.155V260.116ZM479.198 260.116H638.331V395.155H479.198V260.116ZM319.064 260.116H478.198V395.155H319.064V260.116ZM158.931 260.116H318.064V395.155H158.931V260.116ZM158.931 396.155V531.194H318.064V396.155H158.931ZM319.064 396.155V531.194H478.198V396.155H319.064ZM479.198 396.155V531.194H638.331V396.155H479.198ZM639.331 396.155V531.194L798.466 531.194V396.155L639.331 396.155ZM799.466 396.155V531.194H958.599V396.155H799.466ZM959.599 396.155V531.194H1118.73V396.155H959.599ZM1119.73 396.155V531.194H1278.87V396.155H1119.73ZM1279.87 396.155V531.194H1439V396.155H1279.87Z" fill="url(#paint0_linear_3203_6035)"/>
<defs>
<linearGradient id="paint0_linear_3203_6035" x1="720" y1="-63.1051" x2="720" y2="532.194" gradientUnits="userSpaceOnUse">
<stop stop-color="white" stop-opacity="0"/>
<stop offset="0.5" stop-color="white" stop-opacity="0.5"/>
<stop offset="1" stop-color="white" stop-opacity="0"/>
</linearGradient>
</defs>
</svg>
