<svg width="58" height="56" viewBox="0 0 58 56" fill="none" xmlns="http://www.w3.org/2000/svg">
<path fill-rule="evenodd" clip-rule="evenodd" d="M34.9211 0.860627C31.027 0.601774 26.9651 0.602307 23.0791 0.860627C10.9014 1.67012 1.23929 11.5002 0.444834 23.7931C0.296221 26.0928 0.296221 28.4715 0.444834 30.7712C0.740621 35.3483 2.73732 39.4773 4.95686 42.8277C5.62174 44.1117 5.27532 46.0376 4.03177 48.3941C3.61396 49.1853 3.14766 50.0685 2.91172 50.729C2.66172 51.4288 2.40332 52.54 3.0478 53.6386C3.63993 54.6482 4.58604 55.0181 5.35076 55.1661C5.98566 55.289 6.88612 55.3104 7.61649 55.328C11.4025 55.42 14.0703 54.3269 16.1835 52.7688C16.6029 52.4594 16.891 52.2477 17.1078 52.0986C17.4232 52.2144 17.8542 52.3912 18.4891 52.6528C19.9328 53.2472 21.5726 53.6034 23.0791 53.7037C26.9651 53.9618 31.027 53.9624 34.9211 53.7037C47.0987 52.8941 56.7609 43.064 57.5553 30.7712C57.7038 28.4715 57.7038 26.0928 57.5553 23.7931C56.7609 11.5002 47.0987 1.67012 34.9211 0.860627ZM23.6672 18C22.0102 18 20.539 19.0604 20.0149 20.6325L15.1032 35.3675C14.7539 36.4155 15.3203 37.548 16.3681 37.8973C17.416 38.2467 18.5487 37.6803 18.898 36.6325L20.2199 32.6667H27.1147L28.4366 36.6325C28.7859 37.6803 29.9185 38.2467 30.9665 37.8973C32.0142 37.548 32.5806 36.4155 32.2313 35.3675L27.3195 20.6325C26.7955 19.0604 25.3243 18 23.6672 18ZM23.6672 22.3246L25.7814 28.6667H21.5532L23.6672 22.3246ZM40.3339 20C40.3339 18.8954 39.4385 18 38.3339 18C37.2294 18 36.3339 18.8954 36.3339 20V36C36.3339 37.1045 37.2294 38 38.3339 38C39.4385 38 40.3339 37.1045 40.3339 36V20Z" fill="#FAFAFA"/>
</svg>
