<svg width="436" height="302" viewBox="0 0 436 302" fill="none" xmlns="http://www.w3.org/2000/svg">
<g clip-path="url(#clip0_1227_3238)">
<rect x="0.894531" y="0.744629" width="434.599" height="300.797" rx="31.1169" fill="#C7B3FF"/>
<rect x="49" y="69" width="337" height="275" rx="10.3723" fill="#EAECFF"/>
<rect x="49" y="172" width="337" height="33" rx="10.3723" fill="#F7F7F7"/>
<rect x="29.9375" y="118.989" width="375.477" height="76.755" rx="10.3723" fill="white"/>
<circle cx="67.3857" cy="157.366" r="24.8935" fill="#F0F2F5"/>
<path d="M61.1627 154.879C61.1627 151.729 63.7168 149.175 66.8675 149.175C69.6584 149.175 71.9831 151.18 72.4758 153.828C72.5449 154.2 72.8104 154.504 73.169 154.623C75.2339 155.308 76.7212 157.255 76.7212 159.547C76.7212 162.411 74.3992 164.733 71.535 164.733C70.9622 164.733 70.4978 165.197 70.4978 165.77C70.4978 166.343 70.9622 166.807 71.535 166.807C75.5449 166.807 78.7956 163.557 78.7956 159.547C78.7956 156.547 76.9766 153.974 74.3836 152.867C73.4962 149.546 70.4685 147.1 66.8675 147.1C62.5711 147.1 59.0883 150.583 59.0883 154.879C59.0883 154.983 59.0903 155.087 59.0944 155.19C57.2321 156.264 55.9766 158.277 55.9766 160.584C55.9766 164.021 58.7629 166.807 62.1999 166.807C62.7728 166.807 63.2372 166.343 63.2372 165.77C63.2372 165.197 62.7728 164.733 62.1999 164.733C59.9086 164.733 58.051 162.875 58.051 160.584C58.051 158.865 59.0967 157.388 60.5908 156.758C61.0232 156.576 61.2795 156.127 61.2158 155.662C61.1808 155.406 61.1627 155.145 61.1627 154.879Z" fill="#475367"/>
<path d="M66.697 159.809C67.09 159.46 67.6822 159.46 68.0752 159.809L69.631 161.192C70.0592 161.572 70.0977 162.228 69.7172 162.656C69.3842 163.031 68.8408 163.107 68.4233 162.866V167.845C68.4233 168.418 67.9589 168.882 67.3861 168.882C66.8132 168.882 66.3489 168.418 66.3489 167.845V162.866C65.9314 163.107 65.3879 163.031 65.055 162.656C64.6744 162.228 64.713 161.572 65.1411 161.192L66.697 159.809Z" fill="#475367"/>
<path d="M117.772 138.722H119.958V146.608C119.958 147.472 119.754 148.232 119.346 148.888C118.941 149.544 118.371 150.057 117.636 150.426C116.902 150.792 116.043 150.975 115.061 150.975C114.075 150.975 113.214 150.792 112.48 150.426C111.745 150.057 111.175 149.544 110.771 148.888C110.366 148.232 110.164 147.472 110.164 146.608V138.722H112.35V146.425C112.35 146.928 112.46 147.376 112.68 147.769C112.904 148.161 113.218 148.47 113.623 148.694C114.028 148.914 114.507 149.024 115.061 149.024C115.615 149.024 116.094 148.914 116.499 148.694C116.908 148.47 117.222 148.161 117.442 147.769C117.662 147.376 117.772 146.928 117.772 146.425V138.722ZM122.241 154.186V141.74H124.339V143.237H124.462C124.572 143.017 124.728 142.783 124.928 142.535C125.128 142.284 125.399 142.07 125.741 141.893C126.083 141.712 126.519 141.622 127.05 141.622C127.749 141.622 128.38 141.801 128.941 142.158C129.507 142.512 129.955 143.036 130.285 143.732C130.619 144.423 130.786 145.272 130.786 146.278C130.786 147.272 130.623 148.116 130.297 148.812C129.971 149.507 129.527 150.038 128.965 150.403C128.403 150.768 127.767 150.951 127.055 150.951C126.537 150.951 126.107 150.865 125.765 150.692C125.423 150.519 125.148 150.311 124.94 150.067C124.735 149.819 124.576 149.586 124.462 149.366H124.374V154.186H122.241ZM124.333 146.266C124.333 146.851 124.415 147.364 124.58 147.804C124.749 148.244 124.991 148.588 125.305 148.835C125.623 149.079 126.008 149.201 126.46 149.201C126.932 149.201 127.327 149.075 127.645 148.823C127.963 148.568 128.203 148.22 128.364 147.78C128.529 147.336 128.611 146.832 128.611 146.266C128.611 145.704 128.531 145.205 128.37 144.769C128.209 144.333 127.969 143.991 127.651 143.743C127.332 143.496 126.936 143.372 126.46 143.372C126.005 143.372 125.618 143.492 125.299 143.732C124.981 143.971 124.739 144.307 124.574 144.739C124.413 145.172 124.333 145.68 124.333 146.266ZM134.746 138.722V150.792H132.613V138.722H134.746ZM140.889 150.969C140.005 150.969 139.239 150.774 138.59 150.385C137.942 149.996 137.439 149.452 137.082 148.753C136.728 148.053 136.551 147.236 136.551 146.301C136.551 145.366 136.728 144.547 137.082 143.844C137.439 143.14 137.942 142.594 138.59 142.205C139.239 141.816 140.005 141.622 140.889 141.622C141.773 141.622 142.539 141.816 143.187 142.205C143.835 142.594 144.336 143.14 144.69 143.844C145.047 144.547 145.226 145.366 145.226 146.301C145.226 147.236 145.047 148.053 144.69 148.753C144.336 149.452 143.835 149.996 143.187 150.385C142.539 150.774 141.773 150.969 140.889 150.969ZM140.9 149.26C141.38 149.26 141.781 149.128 142.103 148.865C142.425 148.598 142.665 148.24 142.822 147.792C142.983 147.344 143.063 146.845 143.063 146.295C143.063 145.741 142.983 145.24 142.822 144.792C142.665 144.341 142.425 143.981 142.103 143.714C141.781 143.447 141.38 143.313 140.9 143.313C140.409 143.313 140.001 143.447 139.675 143.714C139.352 143.981 139.111 144.341 138.95 144.792C138.793 145.24 138.714 145.741 138.714 146.295C138.714 146.845 138.793 147.344 138.95 147.792C139.111 148.24 139.352 148.598 139.675 148.865C140.001 149.128 140.409 149.26 140.9 149.26ZM149.642 150.975C149.068 150.975 148.551 150.872 148.092 150.668C147.636 150.46 147.275 150.153 147.007 149.749C146.744 149.344 146.613 148.845 146.613 148.252C146.613 147.741 146.707 147.319 146.895 146.985C147.084 146.651 147.341 146.384 147.667 146.183C147.994 145.983 148.361 145.832 148.77 145.729C149.182 145.623 149.608 145.547 150.048 145.5C150.579 145.445 151.009 145.396 151.339 145.352C151.669 145.305 151.909 145.234 152.058 145.14C152.211 145.042 152.288 144.891 152.288 144.686V144.651C152.288 144.207 152.156 143.863 151.893 143.62C151.63 143.376 151.251 143.254 150.756 143.254C150.233 143.254 149.819 143.368 149.512 143.596C149.21 143.824 149.005 144.093 148.899 144.403L146.907 144.121C147.064 143.571 147.324 143.111 147.685 142.742C148.047 142.368 148.489 142.089 149.011 141.905C149.534 141.716 150.111 141.622 150.744 141.622C151.18 141.622 151.614 141.673 152.046 141.775C152.478 141.877 152.873 142.046 153.231 142.282C153.588 142.514 153.875 142.83 154.091 143.231C154.311 143.631 154.421 144.132 154.421 144.734V150.792H152.37V149.548H152.3C152.17 149.8 151.987 150.036 151.752 150.256C151.52 150.472 151.227 150.647 150.873 150.78C150.524 150.91 150.113 150.975 149.642 150.975ZM150.196 149.407C150.624 149.407 150.995 149.322 151.31 149.154C151.624 148.981 151.866 148.753 152.034 148.47C152.207 148.187 152.294 147.879 152.294 147.545V146.478C152.227 146.533 152.113 146.584 151.952 146.631C151.795 146.678 151.618 146.72 151.422 146.755C151.225 146.79 151.031 146.822 150.838 146.849C150.646 146.877 150.479 146.9 150.337 146.92C150.019 146.963 149.734 147.034 149.483 147.132C149.231 147.23 149.033 147.368 148.887 147.545C148.742 147.718 148.669 147.941 148.669 148.216C148.669 148.609 148.813 148.906 149.1 149.106C149.386 149.307 149.752 149.407 150.196 149.407ZM159.926 150.951C159.215 150.951 158.578 150.768 158.016 150.403C157.454 150.038 157.01 149.507 156.684 148.812C156.358 148.116 156.195 147.272 156.195 146.278C156.195 145.272 156.36 144.423 156.69 143.732C157.024 143.036 157.474 142.512 158.04 142.158C158.606 141.801 159.236 141.622 159.932 141.622C160.462 141.622 160.898 141.712 161.24 141.893C161.582 142.07 161.853 142.284 162.053 142.535C162.254 142.783 162.409 143.017 162.519 143.237H162.607V138.722H164.746V150.792H162.648V149.366H162.519C162.409 149.586 162.25 149.819 162.041 150.067C161.833 150.311 161.558 150.519 161.216 150.692C160.874 150.865 160.444 150.951 159.926 150.951ZM160.521 149.201C160.973 149.201 161.358 149.079 161.676 148.835C161.994 148.588 162.236 148.244 162.401 147.804C162.566 147.364 162.648 146.851 162.648 146.266C162.648 145.68 162.566 145.172 162.401 144.739C162.24 144.307 162 143.971 161.682 143.732C161.368 143.492 160.981 143.372 160.521 143.372C160.045 143.372 159.649 143.496 159.33 143.743C159.012 143.991 158.773 144.333 158.611 144.769C158.45 145.205 158.37 145.704 158.37 146.266C158.37 146.832 158.45 147.336 158.611 147.78C158.776 148.22 159.018 148.568 159.336 148.823C159.658 149.075 160.053 149.201 160.521 149.201ZM172.462 154.186C172.172 154.186 171.902 154.163 171.655 154.116C171.411 154.073 171.217 154.021 171.071 153.962L171.566 152.301C171.877 152.391 172.154 152.434 172.397 152.43C172.641 152.426 172.855 152.35 173.04 152.2C173.228 152.055 173.388 151.811 173.517 151.47L173.7 150.98L170.417 141.74H172.68L174.767 148.576H174.861L176.953 141.74H179.222L175.598 151.888C175.429 152.367 175.205 152.778 174.926 153.12C174.647 153.465 174.305 153.729 173.9 153.909C173.5 154.094 173.02 154.186 172.462 154.186ZM184.339 150.969C183.455 150.969 182.689 150.774 182.04 150.385C181.392 149.996 180.889 149.452 180.532 148.753C180.178 148.053 180.001 147.236 180.001 146.301C180.001 145.366 180.178 144.547 180.532 143.844C180.889 143.14 181.392 142.594 182.04 142.205C182.689 141.816 183.455 141.622 184.339 141.622C185.223 141.622 185.989 141.816 186.637 142.205C187.286 142.594 187.786 143.14 188.14 143.844C188.498 144.547 188.676 145.366 188.676 146.301C188.676 147.236 188.498 148.053 188.14 148.753C187.786 149.452 187.286 149.996 186.637 150.385C185.989 150.774 185.223 150.969 184.339 150.969ZM184.351 149.26C184.83 149.26 185.231 149.128 185.553 148.865C185.875 148.598 186.115 148.24 186.272 147.792C186.433 147.344 186.513 146.845 186.513 146.295C186.513 145.741 186.433 145.24 186.272 144.792C186.115 144.341 185.875 143.981 185.553 143.714C185.231 143.447 184.83 143.313 184.351 143.313C183.86 143.313 183.451 143.447 183.125 143.714C182.803 143.981 182.561 144.341 182.4 144.792C182.243 145.24 182.164 145.741 182.164 146.295C182.164 146.845 182.243 147.344 182.4 147.792C182.561 148.24 182.803 148.598 183.125 148.865C183.451 149.128 183.86 149.26 184.351 149.26ZM196.257 146.985V141.74H198.39V150.792H196.322V149.183H196.227C196.023 149.69 195.687 150.104 195.219 150.426C194.756 150.749 194.184 150.91 193.504 150.91C192.911 150.91 192.387 150.778 191.931 150.515C191.479 150.248 191.126 149.861 190.87 149.354C190.615 148.843 190.487 148.226 190.487 147.503V141.74H192.62V147.173C192.62 147.747 192.778 148.203 193.092 148.541C193.406 148.878 193.819 149.047 194.33 149.047C194.644 149.047 194.948 148.971 195.243 148.818C195.538 148.664 195.779 148.436 195.968 148.134C196.16 147.828 196.257 147.444 196.257 146.985ZM200.584 150.792V141.74H202.652V143.248H202.747C202.912 142.726 203.195 142.323 203.595 142.04C204 141.753 204.462 141.61 204.98 141.61C205.098 141.61 205.23 141.616 205.375 141.628C205.524 141.636 205.648 141.649 205.746 141.669V143.631C205.656 143.6 205.513 143.573 205.316 143.549C205.124 143.521 204.937 143.508 204.756 143.508C204.367 143.508 204.018 143.592 203.707 143.761C203.401 143.926 203.159 144.156 202.982 144.451C202.806 144.745 202.717 145.085 202.717 145.47V150.792H200.584ZM214.64 150.951C213.928 150.951 213.292 150.768 212.73 150.403C212.168 150.038 211.724 149.507 211.398 148.812C211.072 148.116 210.909 147.272 210.909 146.278C210.909 145.272 211.074 144.423 211.404 143.732C211.738 143.036 212.188 142.512 212.754 142.158C213.319 141.801 213.95 141.622 214.645 141.622C215.176 141.622 215.612 141.712 215.954 141.893C216.296 142.07 216.567 142.284 216.767 142.535C216.967 142.783 217.123 143.017 217.233 143.237H217.321V138.722H219.46V150.792H217.362V149.366H217.233C217.123 149.586 216.963 149.819 216.755 150.067C216.547 150.311 216.272 150.519 215.93 150.692C215.588 150.865 215.158 150.951 214.64 150.951ZM215.235 149.201C215.687 149.201 216.072 149.079 216.39 148.835C216.708 148.588 216.95 148.244 217.115 147.804C217.28 147.364 217.362 146.851 217.362 146.266C217.362 145.68 217.28 145.172 217.115 144.739C216.954 144.307 216.714 143.971 216.396 143.732C216.081 143.492 215.694 143.372 215.235 143.372C214.759 143.372 214.363 143.496 214.044 143.743C213.726 143.991 213.486 144.333 213.325 144.769C213.164 145.205 213.084 145.704 213.084 146.266C213.084 146.832 213.164 147.336 213.325 147.78C213.49 148.22 213.732 148.568 214.05 148.823C214.372 149.075 214.767 149.201 215.235 149.201ZM225.682 150.969C224.798 150.969 224.032 150.774 223.384 150.385C222.735 149.996 222.233 149.452 221.875 148.753C221.521 148.053 221.345 147.236 221.345 146.301C221.345 145.366 221.521 144.547 221.875 143.844C222.233 143.14 222.735 142.594 223.384 142.205C224.032 141.816 224.798 141.622 225.682 141.622C226.566 141.622 227.332 141.816 227.981 142.205C228.629 142.594 229.13 143.14 229.483 143.844C229.841 144.547 230.02 145.366 230.02 146.301C230.02 147.236 229.841 148.053 229.483 148.753C229.13 149.452 228.629 149.996 227.981 150.385C227.332 150.774 226.566 150.969 225.682 150.969ZM225.694 149.26C226.173 149.26 226.574 149.128 226.896 148.865C227.218 148.598 227.458 148.24 227.615 147.792C227.776 147.344 227.857 146.845 227.857 146.295C227.857 145.741 227.776 145.24 227.615 144.792C227.458 144.341 227.218 143.981 226.896 143.714C226.574 143.447 226.173 143.313 225.694 143.313C225.203 143.313 224.794 143.447 224.468 143.714C224.146 143.981 223.904 144.341 223.743 144.792C223.586 145.24 223.508 145.741 223.508 146.295C223.508 146.845 223.586 147.344 223.743 147.792C223.904 148.24 224.146 148.598 224.468 148.865C224.794 149.128 225.203 149.26 225.694 149.26ZM235.779 150.969C234.875 150.969 234.099 150.77 233.451 150.373C232.807 149.977 232.31 149.429 231.96 148.729C231.614 148.026 231.441 147.217 231.441 146.301C231.441 145.382 231.618 144.57 231.972 143.867C232.325 143.16 232.824 142.61 233.469 142.217C234.117 141.82 234.883 141.622 235.767 141.622C236.502 141.622 237.152 141.757 237.718 142.028C238.288 142.296 238.741 142.675 239.079 143.166C239.417 143.653 239.61 144.223 239.657 144.875H237.618C237.535 144.439 237.339 144.075 237.028 143.785C236.722 143.49 236.311 143.343 235.797 143.343C235.361 143.343 234.977 143.461 234.647 143.696C234.317 143.928 234.06 144.262 233.875 144.698C233.695 145.134 233.604 145.657 233.604 146.266C233.604 146.883 233.695 147.413 233.875 147.857C234.056 148.297 234.31 148.637 234.636 148.877C234.966 149.112 235.353 149.23 235.797 149.23C236.111 149.23 236.392 149.171 236.639 149.053C236.891 148.932 237.101 148.757 237.27 148.529C237.439 148.301 237.555 148.024 237.618 147.698H239.657C239.606 148.338 239.417 148.906 239.091 149.401C238.765 149.892 238.321 150.277 237.759 150.556C237.197 150.831 236.537 150.969 235.779 150.969ZM247.178 146.985V141.74H249.312V150.792H247.243V149.183H247.149C246.944 149.69 246.608 150.104 246.141 150.426C245.677 150.749 245.106 150.91 244.426 150.91C243.833 150.91 243.308 150.778 242.852 150.515C242.401 150.248 242.047 149.861 241.792 149.354C241.536 148.843 241.409 148.226 241.409 147.503V141.74H243.542V147.173C243.542 147.747 243.699 148.203 244.013 148.541C244.328 148.878 244.74 149.047 245.251 149.047C245.565 149.047 245.87 148.971 246.165 148.818C246.459 148.664 246.701 148.436 246.889 148.134C247.082 147.828 247.178 147.444 247.178 146.985ZM251.505 150.792V141.74H253.544V143.278H253.651C253.839 142.759 254.151 142.355 254.588 142.064C255.024 141.769 255.544 141.622 256.149 141.622C256.762 141.622 257.279 141.771 257.699 142.07C258.124 142.364 258.422 142.767 258.595 143.278H258.689C258.89 142.775 259.228 142.374 259.703 142.076C260.182 141.773 260.75 141.622 261.406 141.622C262.239 141.622 262.919 141.885 263.445 142.412C263.972 142.938 264.235 143.706 264.235 144.716V150.792H262.096V145.046C262.096 144.484 261.946 144.073 261.648 143.814C261.349 143.551 260.984 143.419 260.552 143.419C260.037 143.419 259.634 143.58 259.344 143.903C259.057 144.221 258.913 144.635 258.913 145.146V150.792H256.821V144.957C256.821 144.49 256.68 144.117 256.397 143.838C256.118 143.559 255.752 143.419 255.301 143.419C254.994 143.419 254.715 143.498 254.464 143.655C254.212 143.808 254.012 144.026 253.863 144.309C253.713 144.588 253.639 144.914 253.639 145.287V150.792H251.505ZM270.407 150.969C269.499 150.969 268.715 150.78 268.055 150.403C267.399 150.022 266.894 149.484 266.541 148.788C266.187 148.089 266.01 147.266 266.01 146.319C266.01 145.388 266.187 144.57 266.541 143.867C266.898 143.16 267.397 142.61 268.038 142.217C268.678 141.82 269.43 141.622 270.295 141.622C270.853 141.622 271.379 141.712 271.874 141.893C272.373 142.07 272.813 142.345 273.194 142.718C273.579 143.091 273.882 143.567 274.102 144.144C274.322 144.718 274.432 145.401 274.432 146.195V146.849H267.012V145.411H272.387C272.383 145.003 272.295 144.639 272.122 144.321C271.949 143.999 271.707 143.745 271.397 143.561C271.09 143.376 270.733 143.284 270.324 143.284C269.888 143.284 269.505 143.39 269.175 143.602C268.845 143.81 268.588 144.085 268.403 144.427C268.222 144.765 268.13 145.136 268.126 145.541V146.796C268.126 147.323 268.222 147.774 268.415 148.152C268.607 148.525 268.876 148.812 269.222 149.012C269.568 149.209 269.973 149.307 270.436 149.307C270.747 149.307 271.028 149.264 271.279 149.177C271.53 149.087 271.749 148.955 271.933 148.782C272.118 148.609 272.257 148.395 272.352 148.14L274.344 148.364C274.218 148.89 273.978 149.35 273.625 149.743C273.275 150.132 272.827 150.434 272.281 150.65C271.735 150.863 271.11 150.969 270.407 150.969ZM278.37 145.488V150.792H276.237V141.74H278.276V143.278H278.382C278.59 142.771 278.922 142.368 279.378 142.07C279.838 141.771 280.405 141.622 281.081 141.622C281.706 141.622 282.25 141.755 282.714 142.023C283.181 142.29 283.543 142.677 283.798 143.184C284.057 143.69 284.185 144.305 284.181 145.028V150.792H282.048V145.358C282.048 144.753 281.89 144.28 281.576 143.938C281.266 143.596 280.836 143.425 280.286 143.425C279.912 143.425 279.58 143.508 279.29 143.673C279.003 143.834 278.777 144.068 278.612 144.374C278.451 144.68 278.37 145.052 278.37 145.488ZM290.87 141.74V143.39H285.666V141.74H290.87ZM286.951 139.571H289.084V148.069C289.084 148.356 289.128 148.576 289.214 148.729C289.304 148.878 289.422 148.981 289.568 149.036C289.713 149.091 289.874 149.118 290.051 149.118C290.184 149.118 290.306 149.108 290.416 149.089C290.53 149.069 290.617 149.051 290.676 149.036L291.035 150.703C290.921 150.743 290.758 150.786 290.546 150.833C290.338 150.88 290.082 150.908 289.78 150.916C289.245 150.931 288.764 150.851 288.336 150.674C287.908 150.493 287.568 150.214 287.316 149.837C287.069 149.46 286.947 148.989 286.951 148.423V139.571Z" fill="black"/>
<path d="M110.387 176.941V166.38H113.956C114.784 166.38 115.462 166.529 115.988 166.829C116.517 167.124 116.909 167.525 117.163 168.03C117.418 168.535 117.545 169.099 117.545 169.721C117.545 170.344 117.418 170.909 117.163 171.418C116.912 171.927 116.524 172.332 115.998 172.635C115.472 172.934 114.798 173.084 113.976 173.084H111.419V171.949H113.935C114.502 171.949 114.958 171.851 115.302 171.655C115.646 171.459 115.895 171.195 116.049 170.861C116.208 170.524 116.287 170.144 116.287 169.721C116.287 169.299 116.208 168.92 116.049 168.587C115.895 168.254 115.644 167.992 115.297 167.803C114.949 167.611 114.489 167.514 113.915 167.514H111.666V176.941H110.387ZM122.864 176.941H119.605V166.38H123.008C124.033 166.38 124.909 166.591 125.638 167.014C126.367 167.434 126.926 168.037 127.314 168.824C127.703 169.608 127.897 170.547 127.897 171.64C127.897 172.74 127.701 173.687 127.309 174.481C126.917 175.272 126.346 175.88 125.597 176.307C124.848 176.729 123.937 176.941 122.864 176.941ZM120.884 175.806H122.782C123.655 175.806 124.378 175.638 124.952 175.301C125.527 174.964 125.955 174.484 126.236 173.862C126.518 173.24 126.659 172.499 126.659 171.64C126.659 170.787 126.52 170.053 126.242 169.438C125.963 168.819 125.547 168.345 124.994 168.015C124.44 167.681 123.751 167.514 122.926 167.514H120.884V175.806ZM130.042 176.941V166.38H136.375V167.514H131.321V171.083H135.9V172.217H131.321V176.941H130.042ZM146.011 169.02V170.051H141.741V169.02H146.011ZM143.02 176.941V167.927C143.02 167.473 143.127 167.095 143.34 166.792C143.553 166.49 143.83 166.263 144.17 166.112C144.51 165.961 144.87 165.885 145.248 165.885C145.547 165.885 145.791 165.909 145.98 165.957C146.169 166.005 146.31 166.05 146.403 166.091L146.052 167.143C145.99 167.122 145.904 167.097 145.794 167.066C145.688 167.035 145.547 167.019 145.372 167.019C144.969 167.019 144.679 167.121 144.5 167.324C144.325 167.526 144.237 167.824 144.237 168.216V176.941H143.02ZM150.608 177.106C149.893 177.106 149.266 176.936 148.726 176.595C148.19 176.255 147.77 175.779 147.468 175.167C147.169 174.555 147.019 173.84 147.019 173.022C147.019 172.197 147.169 171.476 147.468 170.861C147.77 170.246 148.19 169.768 148.726 169.428C149.266 169.087 149.893 168.917 150.608 168.917C151.323 168.917 151.949 169.087 152.485 169.428C153.025 169.768 153.444 170.246 153.744 170.861C154.046 171.476 154.197 172.197 154.197 173.022C154.197 173.84 154.046 174.555 153.744 175.167C153.444 175.779 153.025 176.255 152.485 176.595C151.949 176.936 151.323 177.106 150.608 177.106ZM150.608 176.013C151.151 176.013 151.598 175.873 151.949 175.595C152.3 175.316 152.559 174.95 152.728 174.497C152.896 174.043 152.98 173.551 152.98 173.022C152.98 172.492 152.896 171.999 152.728 171.542C152.559 171.085 152.3 170.715 151.949 170.433C151.598 170.151 151.151 170.01 150.608 170.01C150.065 170.01 149.618 170.151 149.268 170.433C148.917 170.715 148.657 171.085 148.489 171.542C148.32 171.999 148.236 172.492 148.236 173.022C148.236 173.551 148.32 174.043 148.489 174.497C148.657 174.95 148.917 175.316 149.268 175.595C149.618 175.873 150.065 176.013 150.608 176.013ZM156.055 176.941V169.02H157.231V170.216H157.313C157.458 169.825 157.719 169.507 158.097 169.262C158.475 169.018 158.901 168.896 159.376 168.896C159.465 168.896 159.577 168.898 159.711 168.902C159.845 168.905 159.947 168.91 160.015 168.917V170.155C159.974 170.144 159.88 170.129 159.732 170.108C159.587 170.084 159.434 170.072 159.273 170.072C158.888 170.072 158.544 170.153 158.241 170.314C157.942 170.473 157.705 170.693 157.53 170.975C157.358 171.253 157.272 171.571 157.272 171.929V176.941H156.055ZM161.458 176.941V169.02H162.634V170.258H162.737C162.902 169.835 163.168 169.507 163.536 169.273C163.904 169.036 164.346 168.917 164.861 168.917C165.384 168.917 165.819 169.036 166.166 169.273C166.517 169.507 166.79 169.835 166.986 170.258H167.068C167.271 169.849 167.575 169.524 167.981 169.283C168.387 169.039 168.873 168.917 169.44 168.917C170.149 168.917 170.728 169.139 171.178 169.582C171.629 170.022 171.854 170.708 171.854 171.64V176.941H170.637V171.64C170.637 171.055 170.477 170.638 170.157 170.387C169.838 170.136 169.461 170.01 169.028 170.01C168.471 170.01 168.04 170.179 167.734 170.516C167.428 170.849 167.275 171.272 167.275 171.784V176.941H166.037V171.516C166.037 171.066 165.891 170.703 165.599 170.428C165.307 170.149 164.93 170.01 164.469 170.01C164.153 170.01 163.857 170.094 163.582 170.263C163.311 170.431 163.091 170.665 162.922 170.964C162.757 171.26 162.675 171.602 162.675 171.99V176.941H161.458ZM176.41 177.126C175.908 177.126 175.452 177.032 175.043 176.843C174.634 176.65 174.309 176.374 174.069 176.013C173.828 175.648 173.708 175.208 173.708 174.692C173.708 174.239 173.797 173.871 173.976 173.589C174.155 173.304 174.393 173.08 174.693 172.919C174.992 172.757 175.322 172.637 175.683 172.558C176.047 172.475 176.413 172.41 176.781 172.362C177.262 172.3 177.652 172.253 177.952 172.222C178.254 172.188 178.474 172.131 178.612 172.052C178.753 171.973 178.823 171.836 178.823 171.64V171.598C178.823 171.09 178.684 170.694 178.405 170.412C178.13 170.131 177.713 169.99 177.152 169.99C176.571 169.99 176.116 170.117 175.786 170.371C175.456 170.626 175.224 170.897 175.09 171.186L173.934 170.773C174.141 170.292 174.416 169.917 174.76 169.649C175.107 169.378 175.485 169.189 175.894 169.082C176.307 168.972 176.712 168.917 177.111 168.917C177.365 168.917 177.658 168.948 177.988 169.01C178.321 169.068 178.643 169.19 178.952 169.376C179.265 169.562 179.524 169.842 179.731 170.216C179.937 170.591 180.04 171.093 180.04 171.722V176.941H178.823V175.868H178.761C178.679 176.04 178.541 176.224 178.349 176.42C178.156 176.616 177.9 176.783 177.58 176.92C177.261 177.058 176.87 177.126 176.41 177.126ZM176.595 176.033C177.077 176.033 177.482 175.939 177.812 175.75C178.146 175.561 178.397 175.316 178.565 175.017C178.737 174.718 178.823 174.404 178.823 174.074V172.96C178.771 173.022 178.658 173.078 178.483 173.13C178.311 173.178 178.111 173.221 177.885 173.259C177.661 173.293 177.443 173.324 177.23 173.352C177.02 173.376 176.85 173.396 176.719 173.414C176.403 173.455 176.107 173.522 175.832 173.615C175.561 173.704 175.341 173.84 175.172 174.022C175.007 174.201 174.925 174.445 174.925 174.754C174.925 175.177 175.081 175.497 175.394 175.714C175.71 175.927 176.111 176.033 176.595 176.033ZM185.706 169.02V170.051H181.601V169.02H185.706ZM182.798 167.122H184.015V174.672C184.015 175.016 184.064 175.273 184.164 175.445C184.267 175.614 184.398 175.727 184.556 175.786C184.718 175.841 184.888 175.868 185.066 175.868C185.201 175.868 185.311 175.861 185.397 175.848C185.482 175.83 185.551 175.817 185.603 175.806L185.85 176.9C185.768 176.93 185.653 176.961 185.505 176.992C185.357 177.027 185.17 177.044 184.943 177.044C184.599 177.044 184.262 176.97 183.932 176.822C183.605 176.674 183.334 176.449 183.117 176.147C182.904 175.844 182.798 175.463 182.798 175.002V167.122Z" fill="#98A2B3"/>
<circle cx="195.063" cy="171.441" r="2.07446" fill="#98A2B3"/>
<path d="M204.709 166.38H206.643L210.005 174.589H210.129L213.491 166.38H215.425V176.941H213.909V169.299H213.811L210.696 176.925H209.438L206.323 169.293H206.225V176.941H204.709V166.38ZM219.923 177.116C219.421 177.116 218.967 177.023 218.561 176.838C218.155 176.649 217.834 176.375 217.597 176.018C217.363 175.66 217.246 175.222 217.246 174.703C217.246 174.256 217.332 173.888 217.504 173.599C217.676 173.31 217.908 173.082 218.2 172.913C218.492 172.745 218.819 172.618 219.18 172.532C219.541 172.446 219.909 172.381 220.283 172.336C220.758 172.281 221.143 172.236 221.439 172.202C221.734 172.164 221.949 172.104 222.083 172.021C222.217 171.939 222.284 171.805 222.284 171.619V171.583C222.284 171.133 222.157 170.784 221.903 170.536C221.652 170.289 221.277 170.165 220.779 170.165C220.259 170.165 219.85 170.28 219.551 170.51C219.256 170.737 219.051 170.99 218.938 171.268L217.489 170.938C217.66 170.457 217.911 170.069 218.241 169.773C218.575 169.474 218.958 169.257 219.391 169.123C219.825 168.986 220.28 168.917 220.758 168.917C221.074 168.917 221.409 168.955 221.763 169.03C222.121 169.103 222.454 169.237 222.764 169.433C223.077 169.629 223.333 169.909 223.532 170.273C223.732 170.634 223.831 171.103 223.831 171.681V176.941H222.326V175.858H222.264C222.164 176.057 222.014 176.253 221.815 176.446C221.616 176.638 221.36 176.798 221.047 176.925C220.734 177.053 220.359 177.116 219.923 177.116ZM220.258 175.879C220.684 175.879 221.048 175.794 221.351 175.626C221.657 175.457 221.889 175.237 222.047 174.966C222.209 174.691 222.289 174.397 222.289 174.084V173.063C222.234 173.118 222.128 173.17 221.97 173.218C221.815 173.262 221.638 173.302 221.439 173.336C221.239 173.367 221.045 173.396 220.856 173.424C220.667 173.448 220.509 173.469 220.381 173.486C220.082 173.524 219.809 173.587 219.562 173.677C219.317 173.766 219.122 173.895 218.974 174.063C218.829 174.228 218.757 174.448 218.757 174.723C218.757 175.105 218.898 175.394 219.18 175.59C219.462 175.782 219.821 175.879 220.258 175.879ZM227.102 169.02L228.85 172.104L230.614 169.02H232.3L229.83 172.98L232.32 176.941H230.634L228.85 173.981L227.071 176.941H225.38L227.844 172.98L225.411 169.02H227.102ZM234.899 177.039C234.617 177.039 234.375 176.939 234.172 176.74C233.969 176.537 233.867 176.293 233.867 176.007C233.867 175.726 233.969 175.485 234.172 175.286C234.375 175.083 234.617 174.981 234.899 174.981C235.181 174.981 235.423 175.083 235.626 175.286C235.829 175.485 235.93 175.726 235.93 176.007C235.93 176.197 235.882 176.37 235.786 176.528C235.693 176.683 235.569 176.807 235.414 176.9C235.26 176.992 235.088 177.039 234.899 177.039ZM245.134 177.085C244.487 177.085 243.906 176.961 243.391 176.714C242.878 176.463 242.469 176.119 242.163 175.683C241.857 175.246 241.694 174.747 241.673 174.187H243.22C243.258 174.641 243.459 175.014 243.824 175.306C244.188 175.598 244.625 175.744 245.134 175.744C245.539 175.744 245.898 175.652 246.211 175.466C246.528 175.277 246.775 175.017 246.954 174.687C247.136 174.357 247.227 173.981 247.227 173.558C247.227 173.128 247.134 172.745 246.949 172.408C246.763 172.071 246.507 171.806 246.18 171.614C245.857 171.421 245.486 171.323 245.066 171.32C244.747 171.32 244.425 171.375 244.102 171.485C243.779 171.595 243.518 171.739 243.318 171.918L241.859 171.702L242.452 166.38H248.258V167.746H243.777L243.442 170.701H243.504C243.71 170.502 243.984 170.335 244.324 170.201C244.668 170.067 245.036 170 245.427 170C246.07 170 246.643 170.153 247.145 170.459C247.65 170.765 248.047 171.183 248.336 171.712C248.628 172.238 248.772 172.843 248.769 173.527C248.772 174.211 248.618 174.821 248.305 175.358C247.995 175.894 247.566 176.317 247.016 176.626C246.469 176.932 245.842 177.085 245.134 177.085ZM250.797 166.38H252.731L256.093 174.589H256.217L259.579 166.38H261.512V176.941H259.996V169.299H259.898L256.784 176.925H255.526L252.411 169.293H252.313V176.941H250.797V166.38ZM263.829 176.941V166.38H267.697C268.446 166.38 269.067 166.504 269.558 166.751C270.05 166.995 270.418 167.327 270.662 167.746C270.906 168.162 271.028 168.632 271.028 169.154C271.028 169.594 270.947 169.966 270.785 170.268C270.624 170.567 270.407 170.808 270.136 170.99C269.868 171.169 269.572 171.299 269.249 171.382V171.485C269.599 171.502 269.941 171.616 270.275 171.825C270.612 172.032 270.89 172.326 271.11 172.707C271.33 173.089 271.44 173.553 271.44 174.099C271.44 174.639 271.313 175.124 271.059 175.554C270.808 175.98 270.419 176.319 269.893 176.57C269.367 176.817 268.695 176.941 267.877 176.941H263.829ZM265.422 175.574H267.722C268.486 175.574 269.032 175.426 269.362 175.131C269.692 174.835 269.857 174.466 269.857 174.022C269.857 173.689 269.773 173.383 269.605 173.104C269.436 172.826 269.195 172.604 268.883 172.439C268.573 172.274 268.205 172.191 267.779 172.191H265.422V175.574ZM265.422 170.949H267.557C267.915 170.949 268.236 170.88 268.522 170.742C268.81 170.605 269.039 170.412 269.207 170.165C269.379 169.914 269.465 169.618 269.465 169.278C269.465 168.841 269.312 168.475 269.006 168.18C268.7 167.884 268.231 167.736 267.599 167.736H265.422V170.949Z" fill="#98A2B3"/>
<rect x="309.777" y="138.568" width="83.1913" height="37.5957" rx="8.29784" fill="#335C85"/>
<path d="M334.154 152.305H336.067V159.205C336.067 159.961 335.889 160.627 335.531 161.201C335.177 161.775 334.678 162.223 334.036 162.547C333.393 162.866 332.642 163.026 331.782 163.026C330.919 163.026 330.166 162.866 329.524 162.547C328.881 162.223 328.382 161.775 328.028 161.201C327.674 160.627 327.497 159.961 327.497 159.205V152.305H329.41V159.045C329.41 159.485 329.506 159.877 329.699 160.221C329.895 160.565 330.17 160.835 330.524 161.031C330.878 161.223 331.297 161.319 331.782 161.319C332.267 161.319 332.686 161.223 333.04 161.031C333.398 160.835 333.673 160.565 333.865 160.221C334.058 159.877 334.154 159.485 334.154 159.045V152.305ZM338.064 165.837V154.946H339.9V156.255H340.008C340.105 156.063 340.24 155.858 340.416 155.642C340.591 155.422 340.828 155.234 341.127 155.08C341.426 154.922 341.808 154.843 342.272 154.843C342.884 154.843 343.436 154.999 343.927 155.312C344.422 155.621 344.814 156.08 345.103 156.689C345.395 157.294 345.541 158.036 345.541 158.916C345.541 159.786 345.399 160.525 345.113 161.134C344.828 161.742 344.44 162.206 343.948 162.526C343.456 162.846 342.9 163.006 342.277 163.006C341.824 163.006 341.447 162.93 341.148 162.779C340.849 162.627 340.608 162.445 340.426 162.232C340.247 162.015 340.108 161.811 340.008 161.618H339.931V165.837H338.064ZM339.895 158.906C339.895 159.418 339.967 159.867 340.111 160.252C340.259 160.637 340.471 160.938 340.746 161.154C341.024 161.367 341.361 161.474 341.756 161.474C342.169 161.474 342.514 161.364 342.793 161.144C343.071 160.921 343.281 160.616 343.422 160.231C343.566 159.843 343.639 159.401 343.639 158.906C343.639 158.414 343.568 157.978 343.427 157.596C343.286 157.215 343.077 156.916 342.798 156.699C342.52 156.482 342.172 156.374 341.756 156.374C341.358 156.374 341.019 156.479 340.741 156.689C340.462 156.898 340.251 157.192 340.106 157.57C339.965 157.949 339.895 158.394 339.895 158.906ZM349.007 152.305V162.866H347.14V152.305H349.007ZM354.381 163.021C353.608 163.021 352.937 162.851 352.37 162.511C351.803 162.17 351.363 161.694 351.05 161.082C350.741 160.47 350.586 159.755 350.586 158.937C350.586 158.119 350.741 157.402 351.05 156.787C351.363 156.171 351.803 155.693 352.37 155.353C352.937 155.013 353.608 154.843 354.381 154.843C355.155 154.843 355.825 155.013 356.392 155.353C356.96 155.693 357.398 156.171 357.707 156.787C358.02 157.402 358.177 158.119 358.177 158.937C358.177 159.755 358.02 160.47 357.707 161.082C357.398 161.694 356.96 162.17 356.392 162.511C355.825 162.851 355.155 163.021 354.381 163.021ZM354.392 161.526C354.811 161.526 355.162 161.41 355.444 161.18C355.725 160.946 355.935 160.633 356.073 160.242C356.214 159.85 356.284 159.413 356.284 158.932C356.284 158.447 356.214 158.009 356.073 157.617C355.935 157.221 355.725 156.907 355.444 156.673C355.162 156.439 354.811 156.323 354.392 156.323C353.962 156.323 353.604 156.439 353.319 156.673C353.037 156.907 352.826 157.221 352.685 157.617C352.547 158.009 352.478 158.447 352.478 158.932C352.478 159.413 352.547 159.85 352.685 160.242C352.826 160.633 353.037 160.946 353.319 161.18C353.604 161.41 353.962 161.526 354.392 161.526ZM362.04 163.026C361.538 163.026 361.086 162.937 360.684 162.758C360.285 162.576 359.969 162.308 359.735 161.954C359.505 161.6 359.39 161.163 359.39 160.644C359.39 160.197 359.472 159.827 359.637 159.535C359.802 159.243 360.027 159.009 360.313 158.834C360.598 158.658 360.92 158.526 361.277 158.437C361.638 158.344 362.011 158.277 362.396 158.236C362.86 158.188 363.237 158.145 363.525 158.107C363.814 158.065 364.024 158.004 364.155 157.921C364.289 157.835 364.356 157.703 364.356 157.524V157.493C364.356 157.105 364.24 156.804 364.01 156.591C363.78 156.378 363.448 156.271 363.015 156.271C362.558 156.271 362.195 156.371 361.927 156.57C361.662 156.769 361.483 157.005 361.391 157.276L359.648 157.029C359.785 156.548 360.012 156.145 360.328 155.822C360.645 155.496 361.031 155.252 361.489 155.09C361.946 154.925 362.451 154.843 363.005 154.843C363.386 154.843 363.766 154.887 364.144 154.977C364.522 155.066 364.868 155.214 365.181 155.42C365.494 155.623 365.744 155.9 365.934 156.25C366.126 156.601 366.222 157.039 366.222 157.565V162.866H364.428V161.778H364.366C364.252 161.998 364.093 162.205 363.886 162.397C363.684 162.586 363.427 162.739 363.118 162.856C362.812 162.969 362.453 163.026 362.04 163.026ZM362.525 161.655C362.9 161.655 363.225 161.581 363.5 161.433C363.775 161.282 363.986 161.082 364.134 160.835C364.285 160.587 364.361 160.317 364.361 160.025V159.092C364.302 159.14 364.203 159.184 364.062 159.226C363.924 159.267 363.769 159.303 363.598 159.334C363.426 159.365 363.256 159.392 363.087 159.417C362.919 159.441 362.773 159.461 362.649 159.478C362.37 159.516 362.121 159.578 361.901 159.664C361.681 159.75 361.507 159.87 361.38 160.025C361.253 160.176 361.189 160.372 361.189 160.613C361.189 160.957 361.315 161.216 361.566 161.392C361.817 161.567 362.137 161.655 362.525 161.655ZM371.039 163.006C370.416 163.006 369.86 162.846 369.368 162.526C368.876 162.206 368.488 161.742 368.202 161.134C367.917 160.525 367.774 159.786 367.774 158.916C367.774 158.036 367.919 157.294 368.208 156.689C368.5 156.08 368.893 155.621 369.389 155.312C369.884 154.999 370.435 154.843 371.044 154.843C371.508 154.843 371.89 154.922 372.189 155.08C372.488 155.234 372.725 155.422 372.9 155.642C373.076 155.858 373.211 156.063 373.308 156.255H373.385V152.305H375.257V162.866H373.421V161.618H373.308C373.211 161.811 373.072 162.015 372.89 162.232C372.708 162.445 372.467 162.627 372.168 162.779C371.869 162.93 371.492 163.006 371.039 163.006ZM371.559 161.474C371.955 161.474 372.292 161.367 372.57 161.154C372.849 160.938 373.06 160.637 373.204 160.252C373.349 159.867 373.421 159.418 373.421 158.906C373.421 158.394 373.349 157.949 373.204 157.57C373.064 157.192 372.854 156.898 372.575 156.689C372.3 156.479 371.962 156.374 371.559 156.374C371.144 156.374 370.796 156.482 370.518 156.699C370.239 156.916 370.03 157.215 369.889 157.596C369.748 157.978 369.677 158.414 369.677 158.906C369.677 159.401 369.748 159.843 369.889 160.231C370.033 160.616 370.245 160.921 370.523 161.144C370.805 161.364 371.15 161.474 371.559 161.474Z" fill="white"/>
</g>
<defs>
<clipPath id="clip0_1227_3238">
<rect x="0.894531" y="0.744629" width="434.599" height="300.797" rx="31.1169" fill="white"/>
</clipPath>
</defs>
</svg>
