<svg width="435" height="302" viewBox="0 0 435 302" fill="none" xmlns="http://www.w3.org/2000/svg">
<g clip-path="url(#clip0_1227_3279)">
<rect x="0.28125" y="0.646851" width="434.599" height="300.797" rx="31.1169" fill="#A1C1FF"/>
<rect x="48.4492" y="77.4985" width="336.707" height="243.991" rx="10.3723" fill="#EFF7FF"/>
<rect x="63.3867" y="166.236" width="311" height="42" rx="10.3723" fill="#DEE9FF"/>
<path d="M29.3867 122.236C29.3867 116.713 33.8639 112.236 39.3867 112.236H393.387C398.91 112.236 403.387 116.713 403.387 122.236V187.236C403.387 192.758 398.91 197.236 393.387 197.236H39.3867C33.8639 197.236 29.3867 192.758 29.3867 187.236V122.236Z" fill="white"/>
<rect x="128.387" y="151.902" width="170" height="6" fill="#A1C1FF"/>
<rect x="297.387" y="107.902" width="92" height="92" rx="46" fill="#A0D0FF"/>
<path fill-rule="evenodd" clip-rule="evenodd" d="M356.72 125.236C348.252 125.236 341.387 132.101 341.387 140.569C341.387 149.037 348.252 155.902 356.72 155.902C365.188 155.902 372.053 149.037 372.053 140.569C372.053 132.101 365.188 125.236 356.72 125.236ZM362.721 138.455C363.762 138.086 364.308 136.943 363.939 135.902C363.57 134.861 362.427 134.315 361.386 134.684C360.1 135.14 358.906 135.993 357.896 136.878C356.866 137.782 355.91 138.824 355.106 139.788C354.716 140.255 354.356 140.711 354.034 141.134C353.799 140.914 353.563 140.728 353.329 140.572L353.316 140.563C352.893 140.281 352.326 139.903 351.387 139.903C350.282 139.903 349.387 140.798 349.387 141.903C349.387 142.902 350.12 143.73 351.077 143.879C351.087 143.885 351.098 143.892 351.111 143.9C351.259 143.999 351.717 144.368 352.265 145.464C352.587 146.109 353.231 146.53 353.951 146.567C354.671 146.604 355.355 146.249 355.742 145.641C356.176 145.026 357.456 143.215 358.177 142.351C358.902 141.481 359.712 140.607 360.534 139.886C361.377 139.146 362.124 138.666 362.721 138.455Z" fill="#335C85"/>
<path fill-rule="evenodd" clip-rule="evenodd" d="M344.938 125.238C340.345 128.772 337.385 134.325 337.385 140.569C337.385 151.247 346.041 159.902 356.719 159.902C360.379 159.902 363.801 158.885 366.719 157.119V159.394C366.719 164.288 366.719 168.176 366.285 171.222C365.837 174.37 364.891 176.909 362.784 178.899C360.693 180.873 358.052 181.746 354.775 182.163C351.574 182.569 347.476 182.569 342.274 182.569H339.163C333.961 182.569 329.864 182.569 326.662 182.163C323.385 181.746 320.744 180.873 318.653 178.899C316.546 176.909 315.6 174.37 315.152 171.222C314.719 168.176 314.719 164.288 314.719 159.394V148.411C314.719 143.517 314.719 139.628 315.152 136.583C315.6 133.435 316.546 130.896 318.653 128.906C320.744 126.931 323.385 126.058 326.662 125.642C329.864 125.236 333.961 125.236 339.163 125.236H342.274C343.197 125.236 344.085 125.236 344.938 125.238ZM324.719 156.569C324.719 155.096 325.913 153.902 327.385 153.902H335.674C337.147 153.902 338.341 155.096 338.341 156.569C338.341 158.042 337.147 159.236 335.674 159.236H327.385C325.913 159.236 324.719 158.042 324.719 156.569ZM327.385 164.569C325.913 164.569 324.719 165.763 324.719 167.236C324.719 168.708 325.913 169.902 327.385 169.902H348.719C350.192 169.902 351.385 168.708 351.385 167.236C351.385 165.763 350.192 164.569 348.719 164.569H327.385Z" fill="#335C85"/>
<rect x="43.3867" y="107.902" width="92" height="92" rx="46" fill="#E4C9FF"/>
<path fill-rule="evenodd" clip-rule="evenodd" d="M102.72 125.236C94.2518 125.236 87.3867 132.101 87.3867 140.569C87.3867 149.037 94.2518 155.902 102.72 155.902C111.188 155.902 118.053 149.037 118.053 140.569C118.053 132.101 111.188 125.236 102.72 125.236ZM108.721 138.455C109.762 138.086 110.308 136.943 109.939 135.902C109.57 134.861 108.427 134.315 107.386 134.684C106.1 135.14 104.906 135.993 103.896 136.878C102.866 137.782 101.91 138.824 101.106 139.788C100.716 140.255 100.356 140.711 100.034 141.134C99.799 140.914 99.5633 140.728 99.3294 140.572L99.3155 140.563C98.8934 140.281 98.3259 139.903 97.3867 139.903C96.2822 139.903 95.3867 140.798 95.3867 141.903C95.3867 142.902 96.1195 143.73 97.0771 143.879C97.0867 143.885 97.0979 143.892 97.1107 143.9C97.2593 143.999 97.7166 144.368 98.2646 145.464C98.587 146.109 99.2313 146.53 99.951 146.567C100.671 146.604 101.355 146.249 101.742 145.641C102.176 145.026 103.456 143.215 104.177 142.351C104.902 141.481 105.712 140.607 106.534 139.886C107.377 139.146 108.124 138.666 108.721 138.455Z" fill="#433385"/>
<path fill-rule="evenodd" clip-rule="evenodd" d="M90.9385 125.238C86.3454 128.772 83.3854 134.325 83.3854 140.569C83.3854 151.247 92.0412 159.902 102.719 159.902C106.379 159.902 109.801 158.885 112.719 157.119V159.394C112.719 164.288 112.719 168.176 112.285 171.222C111.837 174.37 110.891 176.909 108.784 178.899C106.693 180.873 104.052 181.746 100.775 182.163C97.5737 182.569 93.4763 182.569 88.2742 182.569H85.1633C79.961 182.569 75.8638 182.569 72.6624 182.163C69.3851 181.746 66.7445 180.873 64.6535 178.899C62.5463 176.909 61.6004 174.37 61.1522 171.222C60.7187 168.176 60.7187 164.288 60.7188 159.394V148.411C60.7187 143.517 60.7187 139.628 61.1522 136.583C61.6004 133.435 62.5463 130.896 64.6535 128.906C66.7445 126.931 69.3851 126.058 72.6624 125.642C75.8638 125.236 79.961 125.236 85.1633 125.236H88.2742C89.1966 125.236 90.0846 125.236 90.9385 125.238ZM70.7188 156.569C70.7188 155.096 71.9127 153.902 73.3854 153.902H81.6741C83.1469 153.902 84.3409 155.096 84.3409 156.569C84.3409 158.042 83.1469 159.236 81.6741 159.236H73.3854C71.9127 159.236 70.7188 158.042 70.7188 156.569ZM73.3854 164.569C71.9127 164.569 70.7188 165.763 70.7188 167.236C70.7188 168.708 71.9127 169.902 73.3854 169.902H94.7188C96.1916 169.902 97.3854 168.708 97.3854 167.236C97.3854 165.763 96.1916 164.569 94.7188 164.569H73.3854Z" fill="#433385"/>
<circle cx="210.887" cy="155.402" r="10" fill="url(#paint0_linear_1227_3279)"/>
<circle cx="210.887" cy="155.402" r="10" stroke="#C1E0FF" stroke-width="5"/>
<circle cx="210.887" cy="155.402" r="10" stroke="#C1E0FF" stroke-width="5"/>
</g>
<defs>
<linearGradient id="paint0_linear_1227_3279" x1="210.887" y1="147.902" x2="210.887" y2="162.902" gradientUnits="userSpaceOnUse">
<stop stop-color="#003366"/>
<stop offset="1" stop-color="#0066CC"/>
</linearGradient>
<clipPath id="clip0_1227_3279">
<rect x="0.28125" y="0.646851" width="434.599" height="300.797" rx="31.1169" fill="white"/>
</clipPath>
</defs>
</svg>
