<svg width="436" height="302" viewBox="0 0 436 302" fill="none" xmlns="http://www.w3.org/2000/svg">
<g clip-path="url(#clip0_1227_3270)">
<rect x="0.894531" y="0.646851" width="434.599" height="300.797" rx="31.1169" fill="#FFCD70"/>
<rect x="49.0625" y="77.4985" width="336.707" height="243.991" rx="10.3723" fill="#FFF6E4"/>
<rect x="65" y="171.902" width="311" height="42" rx="10.3723" fill="#FFF0D5"/>
<path d="M31 127.902C31 122.379 35.4772 117.902 41 117.902H395C400.523 117.902 405 122.379 405 127.902V192.902C405 198.425 400.523 202.902 395 202.902H41C35.4772 202.902 31 198.425 31 192.902V127.902Z" fill="white"/>
<rect x="168.832" y="94.0688" width="96.3333" height="91.6667" rx="45.8333" fill="#FFD9A0"/>
<rect x="168.832" y="94.0688" width="96.3333" height="91.6667" rx="45.8333" stroke="#FFE8BE" stroke-width="11"/>
<path fill-rule="evenodd" clip-rule="evenodd" d="M222.92 112.763C219.026 112.504 214.964 112.504 211.078 112.763C198.9 113.572 189.238 123.402 188.443 135.695C188.295 137.995 188.295 140.374 188.443 142.673C188.739 147.25 190.736 151.379 192.956 154.73C193.62 156.014 193.274 157.94 192.03 160.296C191.613 161.087 191.146 161.971 190.91 162.631C190.66 163.331 190.402 164.442 191.046 165.541C191.639 166.55 192.585 166.92 193.349 167.068C193.984 167.191 194.885 167.213 195.615 167.23C199.401 167.322 202.069 166.229 204.182 164.671C204.602 164.362 204.89 164.15 205.106 164.001C205.422 164.117 205.853 164.293 206.488 164.555C207.931 165.149 209.571 165.506 211.078 165.606C214.964 165.864 219.026 165.865 222.92 165.606C235.097 164.796 244.76 154.966 245.554 142.673C245.702 140.374 245.702 137.995 245.554 135.695C244.76 123.402 235.097 113.572 222.92 112.763ZM211.666 129.902C210.009 129.902 208.538 130.963 208.014 132.535L203.102 147.27C202.753 148.318 203.319 149.45 204.367 149.799C205.415 150.149 206.547 149.582 206.897 148.535L208.219 144.569H215.113L216.435 148.535C216.785 149.582 217.917 150.149 218.965 149.799C220.013 149.45 220.579 148.318 220.23 147.27L215.318 132.535C214.794 130.963 213.323 129.902 211.666 129.902ZM211.666 134.227L213.78 140.569H209.552L211.666 134.227ZM228.333 131.902C228.333 130.798 227.437 129.902 226.333 129.902C225.228 129.902 224.333 130.798 224.333 131.902V147.902C224.333 149.007 225.228 149.902 226.333 149.902C227.437 149.902 228.333 149.007 228.333 147.902V131.902Z" fill="#FFA90C"/>
</g>
<defs>
<clipPath id="clip0_1227_3270">
<rect x="0.894531" y="0.646851" width="434.599" height="300.797" rx="31.1169" fill="white"/>
</clipPath>
</defs>
</svg>
