<svg width="435" height="302" viewBox="0 0 435 302" fill="none" xmlns="http://www.w3.org/2000/svg">
<g clip-path="url(#clip0_1227_3254)">
<rect x="0.28125" y="0.744629" width="434.599" height="300.797" rx="31.1169" fill="#FDB3FF"/>
<rect x="48.4492" y="77.5963" width="336.707" height="243.991" rx="10.3723" fill="#FFF9FF"/>
<rect x="39.7734" y="195" width="337" height="33" rx="10.3723" fill="#FFF1FF"/>
<rect x="8.77344" y="114" width="417.945" height="104.327" rx="13.48" fill="white"/>
<path d="M36.7932 137.087H38.5848L39.846 138.731L40.4412 139.462L42.4508 142.084H40.5885L39.2449 140.334L38.7852 139.698L36.7932 137.087ZM42.8398 134.965C42.8398 136.254 42.6041 137.362 42.1326 138.289C41.6611 139.212 41.0148 139.923 40.1937 140.422C39.3765 140.917 38.4473 141.165 37.4061 141.165C36.3611 141.165 35.4279 140.917 34.6068 140.422C33.7896 139.923 33.1452 139.21 32.6738 138.283C32.2023 137.356 31.9666 136.25 31.9666 134.965C31.9666 133.677 32.2023 132.571 32.6738 131.647C33.1452 130.72 33.7896 130.009 34.6068 129.514C35.4279 129.015 36.3611 128.765 37.4061 128.765C38.4473 128.765 39.3765 129.015 40.1937 129.514C41.0148 130.009 41.6611 130.72 42.1326 131.647C42.6041 132.571 42.8398 133.677 42.8398 134.965ZM41.0364 134.965C41.0364 133.983 40.8773 133.156 40.5591 132.484C40.2448 131.808 39.8126 131.298 39.2625 130.952C38.7164 130.602 38.0976 130.427 37.4061 130.427C36.7107 130.427 36.09 130.602 35.5438 130.952C34.9977 131.298 34.5655 131.808 34.2473 132.484C33.933 133.156 33.7758 133.983 33.7758 134.965C33.7758 135.947 33.933 136.776 34.2473 137.452C34.5655 138.124 34.9977 138.635 35.5438 138.984C36.09 139.33 36.7107 139.503 37.4061 139.503C38.0976 139.503 38.7164 139.33 39.2625 138.984C39.8126 138.635 40.2448 138.124 40.5591 137.452C40.8773 136.776 41.0364 135.947 41.0364 134.965ZM50.703 137.246V131.948H52.471V141H50.7384V139.432H50.6441C50.4358 139.916 50.1019 140.318 49.6422 140.641C49.1865 140.959 48.6187 141.118 47.939 141.118C47.3575 141.118 46.8429 140.99 46.395 140.735C45.951 140.475 45.6013 140.092 45.346 139.586C45.0945 139.079 44.9688 138.452 44.9688 137.706V131.948H46.7309V137.493C46.7309 138.11 46.9018 138.601 47.2436 138.967C47.5854 139.332 48.0294 139.515 48.5755 139.515C48.9055 139.515 49.2336 139.432 49.5597 139.267C49.8897 139.102 50.1628 138.853 50.3789 138.519C50.5989 138.185 50.7069 137.761 50.703 137.246ZM58.7401 141.183C57.8482 141.183 57.0801 140.992 56.4358 140.611C55.7954 140.226 55.3003 139.686 54.9506 138.99C54.6049 138.291 54.432 137.472 54.432 136.533C54.432 135.606 54.6049 134.788 54.9506 134.081C55.3003 133.374 55.7875 132.822 56.4122 132.425C57.0408 132.028 57.7755 131.83 58.6163 131.83C59.1271 131.83 59.6221 131.914 60.1014 132.083C60.5808 132.252 61.011 132.518 61.3921 132.879C61.7732 133.24 62.0737 133.71 62.2938 134.287C62.5138 134.861 62.6238 135.558 62.6238 136.38V137.004H55.428V135.684H60.897C60.897 135.221 60.8027 134.81 60.6141 134.452C60.4256 134.091 60.1604 133.806 59.8185 133.598C59.4807 133.39 59.0838 133.286 58.6281 133.286C58.133 133.286 57.7009 133.407 57.3316 133.651C56.9662 133.891 56.6833 134.205 56.4829 134.594C56.2865 134.979 56.1882 135.397 56.1882 135.849V136.881C56.1882 137.486 56.2943 138 56.5065 138.425C56.7226 138.849 57.0231 139.173 57.4082 139.397C57.7932 139.617 58.2431 139.727 58.7577 139.727C59.0917 139.727 59.3962 139.68 59.6712 139.586C59.9462 139.487 60.1839 139.342 60.3843 139.149C60.5847 138.957 60.7379 138.719 60.844 138.436L62.5118 138.737C62.3782 139.228 62.1386 139.658 61.7928 140.028C61.451 140.393 61.0208 140.678 60.5022 140.882C59.9875 141.083 59.4001 141.183 58.7401 141.183ZM71.3621 134.158L69.765 134.441C69.6983 134.236 69.5922 134.042 69.4468 133.857C69.3054 133.673 69.1129 133.521 68.8693 133.403C68.6257 133.286 68.3212 133.227 67.9558 133.227C67.4568 133.227 67.0404 133.339 66.7064 133.563C66.3724 133.783 66.2055 134.067 66.2055 134.417C66.2055 134.72 66.3174 134.963 66.5414 135.148C66.7653 135.333 67.1268 135.484 67.6258 135.602L69.0637 135.932C69.8967 136.124 70.5174 136.421 70.926 136.822C71.3346 137.222 71.5389 137.743 71.5389 138.383C71.5389 138.926 71.3818 139.409 71.0675 139.833C70.7571 140.254 70.323 140.584 69.765 140.823C69.2111 141.063 68.5687 141.183 67.8379 141.183C66.8243 141.183 65.9972 140.967 65.3568 140.534C64.7164 140.098 64.3235 139.48 64.1782 138.678L65.8813 138.419C65.9874 138.863 66.2055 139.199 66.5355 139.426C66.8655 139.65 67.2957 139.762 67.8261 139.762C68.4037 139.762 68.8653 139.643 69.2111 139.403C69.5568 139.159 69.7297 138.863 69.7297 138.513C69.7297 138.23 69.6236 137.992 69.4114 137.8C69.2032 137.607 68.883 137.462 68.4508 137.364L66.9186 137.028C66.0738 136.835 65.4492 136.529 65.0445 136.109C64.6437 135.688 64.4434 135.156 64.4434 134.511C64.4434 133.977 64.5927 133.51 64.8912 133.109C65.1898 132.708 65.6024 132.396 66.1289 132.172C66.6553 131.944 67.2584 131.83 67.9381 131.83C68.9164 131.83 69.6865 132.042 70.2483 132.466C70.8101 132.887 71.1814 133.451 71.3621 134.158ZM77.7019 131.948V133.362H72.7574V131.948H77.7019ZM74.0834 129.779H75.8455V138.342C75.8455 138.684 75.8966 138.941 75.9987 139.114C76.1009 139.283 76.2325 139.399 76.3936 139.462C76.5586 139.521 76.7374 139.55 76.9299 139.55C77.0713 139.55 77.1951 139.54 77.3012 139.521C77.4072 139.501 77.4898 139.485 77.5487 139.474L77.8669 140.929C77.7648 140.969 77.6194 141.008 77.4308 141.047C77.2422 141.09 77.0065 141.114 76.7236 141.118C76.26 141.126 75.8278 141.043 75.4271 140.87C75.0263 140.697 74.7022 140.43 74.4547 140.069C74.2072 139.707 74.0834 139.254 74.0834 138.707V129.779ZM79.6511 141V131.948H81.4133V141H79.6511ZM80.541 130.551C80.2346 130.551 79.9713 130.449 79.7513 130.245C79.5352 130.036 79.4272 129.789 79.4272 129.502C79.4272 129.211 79.5352 128.964 79.7513 128.76C79.9713 128.551 80.2346 128.447 80.541 128.447C80.8475 128.447 81.1088 128.551 81.3249 128.76C81.5449 128.964 81.6549 129.211 81.6549 129.502C81.6549 129.789 81.5449 130.036 81.3249 130.245C81.1088 130.449 80.8475 130.551 80.541 130.551ZM87.5968 141.183C86.7482 141.183 86.0076 140.988 85.3751 140.599C84.7425 140.21 84.2514 139.666 83.9017 138.967C83.552 138.267 83.3772 137.45 83.3772 136.515C83.3772 135.576 83.552 134.755 83.9017 134.052C84.2514 133.348 84.7425 132.802 85.3751 132.413C86.0076 132.024 86.7482 131.83 87.5968 131.83C88.4455 131.83 89.1861 132.024 89.8186 132.413C90.4512 132.802 90.9423 133.348 91.292 134.052C91.6417 134.755 91.8165 135.576 91.8165 136.515C91.8165 137.45 91.6417 138.267 91.292 138.967C90.9423 139.666 90.4512 140.21 89.8186 140.599C89.1861 140.988 88.4455 141.183 87.5968 141.183ZM87.6027 139.703C88.1528 139.703 88.6085 139.558 88.97 139.267C89.3315 138.977 89.5986 138.59 89.7715 138.106C89.9483 137.623 90.0367 137.091 90.0367 136.509C90.0367 135.932 89.9483 135.401 89.7715 134.918C89.5986 134.431 89.3315 134.04 88.97 133.745C88.6085 133.451 88.1528 133.303 87.6027 133.303C87.0488 133.303 86.5891 133.451 86.2237 133.745C85.8622 134.04 85.5931 134.431 85.4163 134.918C85.2434 135.401 85.157 135.932 85.157 136.509C85.157 137.091 85.2434 137.623 85.4163 138.106C85.5931 138.59 85.8622 138.977 86.2237 139.267C86.5891 139.558 87.0488 139.703 87.6027 139.703ZM95.5455 135.625V141H93.7834V131.948H95.4748V133.421H95.5868C95.795 132.942 96.1211 132.557 96.5651 132.266C97.013 131.975 97.5767 131.83 98.2564 131.83C98.8733 131.83 99.4135 131.96 99.8771 132.219C100.341 132.474 100.7 132.855 100.956 133.362C101.211 133.869 101.339 134.496 101.339 135.242V141H99.5766V135.454C99.5766 134.798 99.4057 134.286 99.0638 133.916C98.722 133.543 98.2525 133.356 97.6553 133.356C97.2467 133.356 96.8833 133.445 96.5651 133.622C96.2507 133.798 96.0013 134.058 95.8166 134.399C95.6359 134.737 95.5455 135.146 95.5455 135.625Z" fill="black"/>
<path opacity="0.2" d="M127.273 135C127.273 136.483 126.834 137.933 126.009 139.167C125.185 140.4 124.014 141.361 122.644 141.929C121.273 142.497 119.765 142.645 118.31 142.356C116.855 142.066 115.519 141.352 114.47 140.303C113.421 139.254 112.707 137.918 112.418 136.463C112.128 135.008 112.277 133.5 112.844 132.13C113.412 130.759 114.373 129.588 115.607 128.764C116.84 127.94 118.29 127.5 119.773 127.5C121.763 127.5 123.67 128.29 125.077 129.697C126.483 131.103 127.273 133.011 127.273 135Z" fill="#003366"/>
<path d="M120.711 139.062C120.711 139.248 120.656 139.429 120.553 139.583C120.45 139.738 120.304 139.858 120.132 139.929C119.961 140 119.772 140.018 119.591 139.982C119.409 139.946 119.242 139.857 119.111 139.725C118.979 139.594 118.89 139.427 118.854 139.245C118.818 139.064 118.836 138.875 118.907 138.704C118.978 138.532 119.098 138.386 119.253 138.283C119.407 138.18 119.588 138.125 119.773 138.125C120.022 138.125 120.261 138.224 120.436 138.4C120.612 138.575 120.711 138.814 120.711 139.062ZM119.773 130.625C118.05 130.625 116.648 131.887 116.648 133.438V133.75C116.648 133.916 116.714 134.075 116.831 134.192C116.949 134.309 117.108 134.375 117.273 134.375C117.439 134.375 117.598 134.309 117.715 134.192C117.833 134.075 117.898 133.916 117.898 133.75V133.438C117.898 132.578 118.74 131.875 119.773 131.875C120.807 131.875 121.648 132.578 121.648 133.438C121.648 134.297 120.807 135 119.773 135C119.608 135 119.449 135.066 119.331 135.183C119.214 135.3 119.148 135.459 119.148 135.625V136.25C119.148 136.416 119.214 136.575 119.331 136.692C119.449 136.809 119.608 136.875 119.773 136.875C119.939 136.875 120.098 136.809 120.215 136.692C120.333 136.575 120.398 136.416 120.398 136.25V136.194C121.823 135.932 122.898 134.795 122.898 133.438C122.898 131.887 121.497 130.625 119.773 130.625ZM127.898 135C127.898 136.607 127.422 138.178 126.529 139.514C125.636 140.85 124.367 141.892 122.883 142.507C121.398 143.121 119.764 143.282 118.188 142.969C116.612 142.655 115.165 141.882 114.028 140.745C112.892 139.609 112.118 138.161 111.805 136.585C111.491 135.009 111.652 133.375 112.267 131.891C112.882 130.406 113.923 129.137 115.259 128.244C116.596 127.352 118.166 126.875 119.773 126.875C121.928 126.877 123.993 127.734 125.516 129.257C127.039 130.781 127.896 132.846 127.898 135ZM126.648 135C126.648 133.64 126.245 132.311 125.49 131.18C124.734 130.05 123.661 129.169 122.404 128.648C121.148 128.128 119.766 127.992 118.432 128.257C117.099 128.522 115.874 129.177 114.912 130.139C113.951 131.1 113.296 132.325 113.031 133.659C112.765 134.992 112.901 136.375 113.422 137.631C113.942 138.887 114.823 139.961 115.954 140.716C117.084 141.472 118.414 141.875 119.773 141.875C121.596 141.873 123.344 141.148 124.633 139.859C125.921 138.57 126.646 136.823 126.648 135Z" fill="#003366"/>
<rect x="30.7734" y="158" width="373.945" height="47.327" rx="10" fill="white"/>
<rect x="31.2734" y="158.5" width="372.945" height="46.327" rx="9.5" stroke="#003366" stroke-opacity="0.25"/>
<rect x="358.773" y="167" width="35.9454" height="29.327" rx="5" fill="#335C85"/>
<path fill-rule="evenodd" clip-rule="evenodd" d="M367.793 176.336C367.533 174.002 369.936 172.288 372.059 173.294L384.003 178.952C386.291 180.035 386.291 183.291 384.003 184.374L372.059 190.033C369.936 191.039 367.534 189.325 367.793 186.991L368.273 182.663H376.391C376.656 182.663 376.91 182.558 377.098 182.37C377.285 182.183 377.391 181.928 377.391 181.663C377.391 181.398 377.285 181.143 377.098 180.956C376.91 180.768 376.656 180.663 376.391 180.663H368.274L367.793 176.336Z" fill="white"/>
</g>
<defs>
<clipPath id="clip0_1227_3254">
<rect x="0.28125" y="0.744629" width="434.599" height="300.797" rx="31.1169" fill="white"/>
</clipPath>
</defs>
</svg>
