<svg width="66" height="66" viewBox="0 0 66 66" fill="none" xmlns="http://www.w3.org/2000/svg">
<path fill-rule="evenodd" clip-rule="evenodd" d="M0.75 33C0.75 50.8113 15.1888 65.25 33 65.25C50.8113 65.25 65.25 50.8113 65.25 33C65.25 15.1888 50.8113 0.75 33 0.75C15.1888 0.75 0.75 15.1888 0.75 33ZM33 51C34.6569 51 36 49.6569 36 48V38.6148H37.6503L37.7076 38.6151C37.9245 38.6157 38.3568 38.6169 38.7393 38.562C39.0828 38.5128 40.6275 38.2596 41.3406 36.6552C42.0537 35.0508 41.2065 33.7347 41.0133 33.4467C40.7976 33.126 40.5069 32.8056 40.3611 32.6454L40.3227 32.6028L38.3073 30.3699C37.647 29.6382 36.9645 28.8813 36.3147 28.332C35.5776 27.7092 34.4847 27 33 27C31.5153 27 30.4224 27.7092 29.6853 28.332C29.0355 28.8813 28.3527 29.6382 27.6927 30.3699L25.6775 32.6028L25.6388 32.6454C25.4931 32.8056 25.2023 33.126 24.9868 33.4467C24.7934 33.7347 23.9462 35.0508 24.6594 36.6552C25.3726 38.2596 26.9172 38.5128 27.2607 38.562C27.6432 38.6169 28.0755 38.6157 28.2924 38.6151L28.3497 38.6148H30V48C30 49.6569 31.3431 51 33 51ZM21 18C21 19.6569 22.3432 21 24 21H42C43.6569 21 45 19.6569 45 18C45 16.3432 43.6569 15 42 15H24C22.3432 15 21 16.3432 21 18Z" fill="#FAFAFA"/>
</svg>
